<?xml version="1.0" standalone="no"?>
<!DOCTYPE svg PUBLIC "-//W3C//DTD SVG 20010904//EN"
 "http://www.w3.org/TR/2001/REC-SVG-20010904/DTD/svg10.dtd">
<svg version="1.0" xmlns="http://www.w3.org/2000/svg"
 width="366.000000pt" height="137.000000pt" viewBox="0 0 366.000000 137.000000"
 preserveAspectRatio="xMidYMid meet">

<g transform="translate(0.000000,137.000000) scale(0.100000,-0.100000)"
fill="#000000" stroke="none">
<path d="M5 1340 c-11 -18 36 -96 80 -133 24 -20 48 -37 54 -37 10 0 71 -70
71 -81 0 -12 -61 -16 -68 -4 -4 6 -20 21 -36 33 -22 17 -32 19 -42 11 -22 -18
-17 -27 27 -56 44 -29 104 -39 125 -22 16 13 54 -5 54 -25 0 -8 6 -16 14 -19
7 -3 22 -29 32 -57 10 -29 25 -55 33 -58 21 -8 70 -65 71 -82 0 -8 9 -26 20
-40 11 -14 20 -32 20 -40 0 -8 15 -34 33 -56 46 -58 164 -174 177 -174 6 0 29
-18 51 -41 34 -35 44 -40 69 -34 31 7 71 -17 50 -30 -5 -3 -10 -17 -10 -31 0
-20 5 -24 29 -24 21 0 28 -5 27 -17 -1 -14 10 -19 50 -24 28 -3 60 -11 72 -18
11 -6 29 -11 39 -11 10 1 -7 10 -37 21 -30 11 -68 21 -83 20 -20 0 -27 4 -23
14 5 14 -14 25 -45 25 -12 0 -19 7 -19 20 0 11 5 20 10 20 6 0 10 9 10 21 0
11 -4 18 -9 14 -6 -3 -13 0 -18 7 -10 17 -46 20 -55 5 -5 -8 -18 -1 -42 22
-19 18 -50 43 -70 55 -20 12 -72 62 -115 111 l-79 90 201 3 c138 2 214 -1 240
-9 34 -11 51 -29 27 -29 -5 0 -10 -5 -10 -11 0 -8 5 -8 15 1 22 18 18 38 -7
42 -14 2 -24 13 -29 32 -14 52 -55 61 -95 21 l-25 -25 -10 28 c-6 15 -15 35
-20 44 -7 14 -3 21 20 33 41 21 44 29 20 59 -20 26 -21 28 -4 47 21 23 23 20
-39 53 l-48 26 -25 -20 c-32 -25 -35 -25 -67 5 -15 14 -34 25 -42 25 -7 0 -14
7 -14 15 0 8 -7 16 -15 16 -19 2 -25 4 -47 13 -10 4 -23 6 -30 4 -6 -2 -28 13
-47 34 -20 21 -59 53 -88 70 -29 18 -53 37 -53 43 0 6 -14 27 -31 48 -28 35
-34 37 -85 37 -36 0 -61 5 -70 15 -17 17 -79 20 -89 5z m719 -396 c11 -28 7
-35 -13 -22 -10 6 -17 18 -14 25 7 18 20 16 27 -3z m6 -64 c-9 -6 -9 -13 -1
-29 9 -17 9 -21 -2 -21 -8 0 -20 7 -27 15 -10 13 -10 19 5 35 10 11 22 17 27
14 6 -4 5 -9 -2 -14z"/>
<path d="M2514 1262 c-14 -11 -20 -27 -19 -47 4 -45 4 -45 25 -45 14 0 20 7
20 23 0 13 7 32 15 43 31 42 2 61 -41 26z"/>
<path d="M1640 1235 c-6 -8 -14 -32 -17 -54 -4 -26 -12 -42 -23 -46 -11 -3
-20 -22 -26 -52 -9 -45 -11 -48 -54 -60 -32 -10 -52 -11 -68 -3 -35 15 -70 12
-90 -8 -12 -12 -40 -21 -74 -25 -51 -5 -58 -3 -82 22 -14 15 -26 32 -26 38 0
6 -7 14 -16 17 -18 7 -64 -39 -64 -64 0 -10 -6 -23 -14 -30 -13 -10 -12 -16 5
-46 10 -19 19 -42 19 -52 0 -9 7 -35 14 -57 11 -29 20 -40 35 -39 11 0 18 -3
15 -8 -3 -5 2 -25 11 -44 16 -34 30 -48 19 -19 -5 13 27 15 255 15 151 0 261
-4 261 -9 0 -5 -5 -11 -11 -13 -5 -2 -11 -30 -12 -62 -1 -37 -7 -61 -14 -64
-7 -2 -13 3 -13 12 0 20 -7 20 -60 1 -56 -20 -60 -19 -60 9 0 27 -21 39 -54
30 -14 -3 -27 1 -36 11 -11 14 -15 14 -35 1 -13 -8 -31 -15 -41 -14 -11 0 -26
-1 -34 -3 -8 -2 -15 2 -16 9 -1 6 -2 16 -3 21 -1 11 -131 9 -131 -3 0 -5 26
-6 58 -4 52 5 59 4 68 -16 5 -11 16 -19 24 -17 8 2 22 3 30 3 8 0 27 4 43 10
20 8 31 7 42 -2 8 -7 22 -10 30 -6 23 8 45 -4 45 -25 0 -28 19 -32 67 -15 36
13 42 12 56 -2 13 -13 19 -13 32 -2 9 7 14 19 11 25 -2 7 0 17 6 23 8 8 8 15
0 25 -8 10 -7 20 3 41 8 16 12 39 9 52 -6 25 10 45 64 81 19 13 21 21 16 49
-4 24 -1 42 11 60 14 22 22 25 49 20 23 -5 37 -2 46 9 15 19 4 35 -47 66 -26
16 -31 24 -21 30 13 9 10 18 -33 87 -12 20 -12 24 2 32 9 5 16 21 15 37 -1 24
-6 29 -41 35 -69 12 -132 9 -145 -7z"/>
<path d="M1032 1228 c-19 -19 -14 -48 11 -57 28 -11 37 -6 37 23 0 21 -16 46
-30 46 -3 0 -11 -5 -18 -12z"/>
<path d="M2414 1202 c-18 -12 -27 -127 -11 -140 18 -16 27 -5 27 33 0 17 5 36
11 42 13 13 8 65 -6 70 -5 1 -15 -1 -21 -5z"/>
<path d="M880 1165 c-7 -8 -21 -15 -31 -15 -20 0 -23 -8 -13 -34 6 -17 35 -22
48 -9 4 4 15 8 24 8 21 0 28 31 12 50 -16 19 -24 19 -40 0z"/>
<path d="M1090 1140 c-12 -7 -12 -13 -4 -27 16 -26 39 -22 39 6 0 27 -13 35
-35 21z"/>
<path d="M2608 1080 c-49 -40 -84 -150 -47 -150 16 0 10 -42 -8 -55 -16 -12
-16 -14 1 -40 14 -22 16 -32 8 -50 -13 -29 4 -47 39 -41 13 3 27 5 32 5 17 2
5 32 -19 47 -31 21 -17 42 14 23 32 -20 38 -3 14 40 -12 21 -22 42 -22 46 0 4
18 4 40 0 33 -6 40 -4 40 9 0 9 -4 16 -9 16 -14 0 -23 32 -11 44 15 15 12 46
-5 52 -11 5 -12 11 -5 24 6 10 10 28 10 39 0 30 -29 26 -72 -9z"/>
<path d="M2363 1043 c-13 -2 -23 -10 -23 -17 0 -7 -9 -21 -20 -31 -17 -16 -31
-17 -107 -11 -47 3 -91 10 -97 15 -19 14 -67 19 -79 7 -7 -6 -23 -17 -37 -24
-30 -15 -50 -54 -50 -97 0 -17 -7 -41 -17 -54 -9 -13 -20 -44 -25 -69 -4 -25
-15 -53 -23 -62 -30 -33 -7 -111 28 -97 23 9 32 -32 17 -78 -21 -65 -4 -91 55
-87 17 2 20 -4 20 -41 0 -31 4 -42 15 -42 10 0 15 11 17 35 1 23 -1 27 -4 10
-8 -40 -23 -48 -23 -13 0 45 10 68 22 51 6 -8 7 -3 3 17 -9 36 -9 34 -7 108
l2 58 36 -38 c24 -24 32 -30 25 -15 -7 13 -19 26 -27 29 -12 4 -14 15 -9 44 5
31 4 39 -9 39 -24 0 -28 -16 -28 -125 l0 -103 -29 -4 c-16 -3 -37 1 -46 7 -15
11 -15 18 -4 67 16 64 5 100 -28 91 -33 -8 -40 59 -9 90 13 14 37 17 121 17
l105 0 27 -36 c19 -24 25 -42 21 -59 -6 -24 9 -36 51 -39 30 -2 15 11 -17 16
-19 2 -24 8 -22 25 3 23 -44 103 -61 103 -5 0 -4 7 3 15 7 8 21 15 31 15 11 0
19 6 19 13 0 7 4 6 10 -4 5 -9 24 -16 43 -17 30 -1 36 2 40 24 2 13 1 27 -3
29 -5 3 -6 14 -3 24 6 23 -27 44 -52 35 -10 -4 -22 1 -31 15 -19 27 -44 16
-95 -43 l-37 -41 -21 25 c-30 36 -37 71 -18 85 21 15 191 19 218 5 11 -7 38
-8 63 -5 35 6 50 16 85 56 35 41 40 52 31 69 -6 11 -14 19 -18 19 -4 -1 -17
-4 -29 -6z m-313 -380 c0 -5 -4 -14 -9 -21 -7 -11 -9 -11 -14 1 -3 8 -3 18 0
21 9 8 23 7 23 -1z"/>
<path d="M175 1016 c-18 -13 -17 -15 11 -54 30 -43 57 -53 68 -26 9 25 8 31
-20 63 -29 35 -33 36 -59 17z"/>
<path d="M2805 899 c-4 -5 0 -18 9 -28 17 -19 22 -36 7 -26 -5 3 -16 -2 -24
-10 -9 -8 -32 -15 -51 -15 -25 0 -36 -4 -36 -15 0 -18 75 -22 85 -5 4 7 16 1
30 -15 16 -16 35 -25 55 -25 20 0 30 -5 30 -15 0 -9 12 -21 26 -27 25 -12 25
-12 5 -20 -29 -10 -28 -46 1 -50 14 -2 24 -11 26 -23 9 -58 39 -80 72 -50 17
15 51 8 117 -28 18 -9 42 -17 54 -17 35 0 179 -62 179 -77 0 -7 4 -13 9 -13 5
0 15 -15 22 -32 27 -69 26 -72 -6 -93 -32 -22 -60 -69 -50 -85 9 -15 115 -13
120 3 11 28 63 13 108 -31 26 -26 47 -39 51 -33 4 5 6 126 6 267 0 196 -3 260
-12 266 -21 13 -33 9 -15 -4 14 -11 17 -35 17 -168 0 -85 0 -202 0 -260 l1
-104 -46 47 c-38 38 -52 46 -77 43 -16 -1 -33 -7 -36 -13 -4 -5 -31 -10 -60
-10 -49 -1 -52 0 -47 21 8 25 50 66 70 66 21 0 12 40 -22 102 -30 52 -36 57
-111 86 -43 18 -88 32 -100 32 -26 0 -72 20 -72 32 0 4 -7 8 -15 8 -9 0 -28 6
-44 14 -25 13 -28 13 -39 -5 -7 -10 -17 -19 -23 -19 -15 0 -41 28 -35 38 8 13
-23 52 -40 52 -8 0 -14 7 -14 16 0 11 8 15 29 12 16 -1 36 4 45 11 12 10 20
11 28 3 11 -11 39 -5 49 11 12 17 65 -15 77 -45 15 -40 44 -36 83 13 l32 41
161 -4 161 -3 -70 24 c-38 13 -83 33 -99 44 l-29 21 -37 -21 c-35 -21 -70 -17
-56 5 8 13 -71 72 -96 72 -10 0 -21 -6 -24 -14 -3 -8 -12 -12 -20 -9 -19 7
-27 -18 -15 -49 9 -24 16 -27 100 -47 22 -5 23 -8 10 -21 -8 -8 -22 -27 -32
-42 -22 -36 -54 -37 -63 -2 -4 14 -17 29 -29 34 -21 8 -22 13 -15 45 10 46
-12 95 -43 95 -12 1 -33 7 -47 15 -33 19 -84 19 -100 0 -17 -21 -40 -19 -40 3
0 10 -5 23 -12 30 -15 15 -64 16 -73 1z m415 -99 c6 -11 7 -20 2 -20 -10 0
-32 21 -32 32 0 16 19 8 30 -12z m-220 -84 c0 -2 -7 -7 -16 -10 -8 -3 -12 -2
-9 4 6 10 25 14 25 6z"/>
<path d="M258 895 c-10 -10 5 -57 19 -62 22 -8 36 12 29 41 -6 24 -33 35 -48
21z"/>
<path d="M296 819 c-19 -27 -7 -54 33 -77 16 -9 38 -30 50 -47 33 -48 61 -76
72 -70 13 9 11 31 -4 47 -29 31 -83 104 -97 131 -19 39 -34 44 -54 16z m125
-131 c36 -41 39 -72 4 -34 -14 15 -25 31 -25 36 0 5 -8 14 -17 19 -12 7 -14
10 -4 11 7 0 26 -15 42 -32z"/>
<path d="M2314 765 c-13 -34 3 -44 61 -38 51 5 57 4 62 -16 7 -26 33 -28 33
-2 0 11 9 23 20 26 22 7 27 24 8 29 -7 3 -50 7 -96 10 -67 4 -84 3 -88 -9z"/>
<path d="M2753 770 c-28 -11 -21 -38 13 -46 33 -8 54 1 54 25 0 28 -27 37 -67
21z"/>
<path d="M993 694 c-21 -15 -22 -18 -7 -45 19 -38 59 -40 76 -3 22 49 -23 80
-69 48z m64 -10 c8 -21 -8 -46 -30 -50 -24 -3 -42 33 -26 52 16 19 48 18 56
-2z"/>
<path d="M2615 681 c-20 -9 -53 -41 -42 -41 3 0 13 8 23 17 23 23 135 30 188
11 43 -14 70 -46 57 -67 -7 -10 -14 -10 -40 4 -18 9 -54 18 -81 20 -40 4 -48
2 -43 -10 4 -11 -1 -14 -18 -12 -13 2 -24 9 -24 15 0 6 -3 14 -7 18 -5 4 -8 0
-8 -9 0 -24 -13 -21 -44 8 -32 30 -40 32 -26 6 15 -28 13 -38 -10 -44 -38 -10
-75 7 -75 34 0 20 6 25 35 30 29 5 31 7 8 8 -40 2 -58 -9 -58 -34 0 -29 19
-44 63 -52 28 -4 37 -1 50 18 13 18 19 20 30 10 23 -18 87 -24 93 -8 10 28
132 -1 173 -41 13 -12 17 -12 28 4 18 25 16 34 -6 34 -11 0 -21 9 -25 23 -9
37 -61 60 -146 64 -41 2 -84 -1 -95 -6z m270 -101 c-3 -5 -10 -10 -16 -10 -5
0 -9 5 -9 10 0 6 7 10 16 10 8 0 12 -4 9 -10z"/>
<path d="M870 667 c0 -10 60 -35 65 -27 3 4 -3 10 -13 13 -9 2 -25 8 -34 12
-10 4 -18 5 -18 2z"/>
<path d="M887 633 c-12 -20 -16 -91 -7 -118 9 -28 9 -27 5 10 -3 22 -1 55 5
74 9 33 8 52 -3 34z"/>
<path d="M2242 543 c-1 -17 -8 -34 -14 -36 -10 -4 -10 -8 1 -15 11 -8 10 -13
-5 -30 -14 -17 -21 -19 -38 -9 -12 6 -30 11 -41 11 -24 1 -27 31 -3 31 10 0
17 5 15 10 -1 5 -10 8 -20 7 -10 -2 -27 4 -38 14 -24 21 -25 12 -2 -12 10 -9
18 -24 18 -32 0 -16 12 -23 65 -41 30 -10 37 -9 47 6 11 14 16 15 38 3 36 -19
56 1 30 30 -10 11 -24 20 -31 20 -7 0 -14 16 -17 38 -3 34 -4 35 -5 5z m42
-68 c11 -8 17 -17 14 -21 -8 -8 -48 14 -48 26 0 14 12 12 34 -5z"/>
<path d="M555 490 c-4 -6 -1 -17 5 -25 13 -16 50 -21 50 -7 0 5 -10 8 -21 8
-12 -1 -24 5 -27 13 -3 10 2 13 21 9 15 -3 24 -1 21 3 -7 12 -42 11 -49 -1z"/>
<path d="M2992 486 c-12 -6 -25 -19 -28 -29 -6 -20 12 -47 32 -47 17 0 47 57
40 76 -6 16 -12 16 -44 0z m38 -4 c0 -22 -27 -62 -40 -59 -21 3 -19 42 3 41 9
-1 17 4 17 12 0 8 5 14 10 14 6 0 10 -4 10 -8z"/>
<path d="M3106 477 c-10 -7 -17 -20 -15 -28 1 -7 -1 -31 -6 -52 -4 -21 -4 -42
1 -47 8 -8 12 18 14 91 1 25 30 46 44 31 14 -14 5 -81 -15 -106 -11 -14 -16
-26 -12 -26 12 0 51 72 48 85 -2 6 -6 22 -9 38 -7 30 -22 34 -50 14z"/>
<path d="M871 460 c-1 -24 3 -25 54 -28 31 -2 71 -10 90 -18 19 -8 35 -12 35
-8 0 3 13 -5 29 -19 25 -21 41 -25 95 -25 49 0 66 3 66 13 0 20 20 29 33 16 6
-6 20 -11 32 -11 12 0 26 -5 32 -11 7 -7 45 -11 97 -10 79 1 116 -9 81 -23 -8
-3 -15 -12 -15 -21 0 -16 -26 -20 -56 -8 -16 6 -16 7 2 14 17 7 17 8 -3 8 -29
1 -30 -25 -2 -34 11 -4 36 -4 54 -1 27 5 36 3 49 -15 11 -17 21 -20 44 -16 19
4 37 1 48 -8 18 -14 18 -15 -6 -34 -21 -16 -27 -18 -40 -7 -32 28 -42 30 -35
7 8 -25 5 -26 -43 -5 -22 9 -78 18 -141 21 -69 3 -121 11 -155 24 -28 10 -58
19 -66 19 -8 -1 16 -12 53 -25 48 -17 97 -25 165 -29 53 -2 117 -11 141 -20
35 -13 47 -14 59 -4 12 10 16 10 19 1 6 -18 23 -16 45 4 17 15 18 15 18 -7 0
-20 4 -22 35 -18 19 2 35 0 35 -5 0 -5 20 -6 48 -2 26 4 63 9 82 10 19 2 46 8
60 13 22 10 19 11 -20 7 -25 -2 -67 -8 -94 -15 -58 -13 -78 -8 -69 17 6 17 5
17 -14 1 -29 -26 -53 -23 -53 7 0 31 34 52 56 34 20 -17 93 -19 87 -2 -3 9 4
13 21 13 14 0 26 -4 26 -9 0 -4 11 -6 25 -3 18 3 31 -2 41 -14 14 -18 15 -18
5 2 -8 16 -23 23 -62 28 -32 4 -56 3 -62 -3 -14 -14 -53 -14 -78 -1 -13 8 -25
7 -39 0 -16 -8 -25 -7 -42 4 -13 9 -32 13 -49 9 -18 -3 -29 -1 -29 5 0 6 -12
17 -26 25 -23 12 -24 15 -10 26 9 8 16 20 16 27 0 11 -20 14 -94 13 -51 -1
-100 2 -107 7 -15 10 -80 34 -91 34 -4 0 -9 -9 -13 -19 -5 -16 -15 -19 -72
-17 -56 2 -69 5 -81 24 -9 14 -25 22 -43 22 -15 0 -31 5 -34 10 -3 6 -27 10
-53 10 -50 0 -66 6 -75 30 -3 9 -6 5 -6 -10z"/>
<path d="M1593 364 c-7 -20 4 -30 44 -39 41 -8 50 8 17 34 -32 25 -52 27 -61
5z m58 -14 l24 -21 -35 7 c-41 8 -44 9 -35 23 9 16 20 14 46 -9z"/>
<path d="M2881 338 c-44 -45 -39 -53 6 -10 l38 35 6 -24 c7 -23 7 -23 8 4 1
36 -19 35 -58 -5z"/>
<path d="M2644 345 c-7 -18 3 -35 22 -35 8 0 14 10 14 25 0 27 -27 35 -36 10z
m22 -22 c-10 -10 -19 5 -10 18 6 11 8 11 12 0 2 -7 1 -15 -2 -18z"/>
<path d="M2037 334 c-17 -17 -5 -34 24 -34 24 0 30 4 27 18 -3 17 -38 29 -51
16z m43 -14 c0 -5 -6 -10 -14 -10 -8 0 -18 5 -21 10 -3 6 3 10 14 10 12 0 21
-4 21 -10z"/>
<path d="M2104 325 c-4 -9 -2 -21 4 -27 15 -15 44 -1 40 19 -4 23 -36 29 -44
8z m34 -7 c-6 -18 -25 -21 -25 -3 0 8 7 15 15 15 7 0 12 -5 10 -12z"/>
<path d="M2911 317 c-1 -23 -51 -77 -70 -77 -11 0 -9 6 5 23 l19 22 -23 -19
c-25 -22 -16 -42 15 -32 26 8 65 63 60 84 -4 15 -5 15 -6 -1z"/>
<path d="M2470 313 c-28 -4 -55 -37 -44 -54 3 -5 13 -8 22 -5 10 2 34 7 55 11
41 7 49 28 18 45 -11 5 -21 9 -23 9 -2 -1 -14 -4 -28 -6z m50 -13 c8 -5 11
-12 8 -16 -9 -8 -91 -24 -97 -18 -8 7 21 33 42 37 12 2 24 5 27 5 3 1 12 -2
20 -8z"/>
<path d="M2720 293 c0 -5 11 -8 24 -8 13 0 22 3 19 8 -2 4 -13 7 -24 7 -10 0
-19 -3 -19 -7z"/>
<path d="M1081 280 c-9 -5 -4 -7 13 -7 29 0 32 2 13 10 -8 3 -20 2 -26 -3z"/>
<path d="M2010 262 c-8 -3 -28 -14 -43 -25 -27 -18 -27 -20 -11 -38 16 -18 16
-19 -5 -19 -12 0 -20 -4 -17 -9 3 -5 15 -7 25 -4 23 6 91 -42 91 -63 0 -7 -12
-17 -26 -20 -18 -5 -30 -1 -45 15 -11 11 -31 21 -45 21 -28 0 -44 28 -23 41 8
5 10 9 4 9 -16 -1 -49 -29 -42 -37 4 -3 7 -3 7 1 0 4 7 0 16 -8 8 -9 26 -16
38 -16 13 0 31 -9 41 -20 30 -33 85 -21 85 19 0 9 -17 30 -37 47 l-37 31 90 0
c60 0 99 5 119 15 17 8 37 13 45 11 10 -3 9 0 -4 11 -22 18 -13 36 15 29 14
-4 19 -12 16 -24 -3 -11 -1 -17 4 -13 5 3 9 13 9 23 0 21 -48 35 -66 20 -21
-17 -117 -21 -154 -6 -19 8 -42 12 -50 9z m109 -29 c10 2 25 1 32 -4 7 -4 19
-3 26 3 7 5 20 7 30 4 29 -11 -28 -34 -94 -37 -148 -7 -192 9 -120 43 28 14
36 14 70 1 20 -9 46 -13 56 -10z"/>
<path d="M2302 249 c-19 -29 -5 -38 48 -30 37 5 46 10 48 29 3 20 -1 22 -40
22 -33 0 -46 -5 -56 -21z m88 -4 c0 -10 -10 -15 -29 -15 -16 0 -37 -3 -46 -6
-15 -6 -15 -4 -4 15 17 25 79 31 79 6z"/>
<path d="M2575 259 c-12 -18 5 -24 70 -25 48 -1 65 3 70 14 3 9 13 12 25 9 11
-3 22 -2 25 3 3 4 -29 8 -71 8 -62 0 -73 -2 -64 -13 9 -11 5 -14 -20 -13 -22
1 -29 5 -26 15 6 16 0 17 -9 2z m125 -9 c0 -13 -11 -13 -30 0 -12 8 -11 10 8
10 12 0 22 -4 22 -10z"/>
<path d="M2322 187 c-28 -15 -52 -39 -69 -67 -15 -25 -31 -48 -37 -52 -7 -5
-7 -8 -1 -8 12 0 43 20 31 20 -5 0 -2 7 5 16 7 9 18 26 24 38 10 21 78 64 103
65 7 1 12 -11 12 -27 0 -37 -46 -81 -93 -89 -22 -3 -37 -11 -37 -20 0 -7 -12
-18 -26 -23 -27 -11 -48 -5 -39 11 4 5 1 9 -4 9 -14 0 -14 -13 1 -28 18 -18
36 -15 63 12 13 13 37 27 52 30 16 4 43 20 61 37 26 25 32 38 30 62 -4 40 -21
43 -76 14z"/>
<path d="M841 91 c-19 -12 -6 -43 16 -39 10 2 18 12 18 22 0 22 -14 29 -34 17z
m29 -16 c0 -8 -4 -15 -9 -15 -13 0 -22 16 -14 24 11 11 23 6 23 -9z"/>
<path d="M2108 79 c-27 -15 -21 -31 9 -27 17 2 29 10 31 21 4 19 -14 22 -40 6z
m32 -9 c0 -5 -10 -10 -22 -10 -19 0 -20 2 -8 10 19 13 30 13 30 0z"/>
</g>
</svg>
