<?xml version="1.0" standalone="no"?>
<!DOCTYPE svg PUBLIC "-//W3C//DTD SVG 20010904//EN"
 "http://www.w3.org/TR/2001/REC-SVG-20010904/DTD/svg10.dtd">
<svg version="1.0" xmlns="http://www.w3.org/2000/svg"
 width="222.000000pt" height="227.000000pt" viewBox="0 0 222.000000 227.000000"
 preserveAspectRatio="xMidYMid meet">

<g transform="translate(0.000000,227.000000) scale(0.100000,-0.100000)"
fill="#000000" stroke="none">
<path d="M955 2220 c-93 -15 -214 -56 -284 -97 -36 -21 -102 -76 -149 -122
-90 -90 -90 -90 -58 -163 l16 -38 -25 0 c-14 0 -43 -9 -65 -20 -38 -19 -38
-20 -28 -56 8 -31 6 -45 -11 -83 -20 -42 -22 -60 -19 -220 l3 -174 45 -16 45
-15 -53 -10 -52 -9 6 -448 c4 -247 4 -449 0 -449 -4 0 -28 16 -53 35 -25 19
-48 33 -50 31 -2 -2 7 -32 21 -67 33 -79 32 -83 -4 -64 -48 25 -47 18 5 -35
52 -53 55 -67 11 -50 -50 19 -50 10 -1 -40 48 -48 51 -50 106 -50 32 0 86 9
120 20 62 19 64 19 84 1 47 -43 98 -53 138 -27 18 12 32 13 71 4 45 -9 50 -9
74 15 23 24 27 24 48 10 13 -8 42 -19 65 -24 39 -9 44 -7 84 26 42 34 44 35
79 20 49 -21 62 -19 102 12 l35 26 89 -28 c74 -24 94 -27 112 -17 61 31 75 32
152 5 l75 -26 28 21 28 20 37 -34 c27 -24 47 -34 71 -34 45 0 55 9 78 70 11
29 30 67 42 84 l23 31 -22 105 -22 105 -1 -69 -1 -69 -25 23 c-20 19 -25 33
-25 71 0 26 -4 51 -10 54 -6 4 -10 110 -10 287 0 270 -1 281 -21 310 -21 29
-21 31 -5 64 13 29 16 73 16 267 0 223 -1 236 -27 322 -16 57 -36 101 -54 120
-16 18 -30 47 -34 72 -12 76 -119 196 -225 252 -97 52 -194 72 -365 76 -82 2
-177 0 -210 -5z m240 -59 c10 -17 -59 -59 -113 -69 -29 -5 -71 -6 -95 -1 -23
4 -76 8 -118 9 -83 0 -98 -9 -133 -77 -24 -48 -20 -51 22 -11 52 50 76 60 120
52 57 -10 58 -14 11 -58 -24 -23 -61 -60 -81 -83 -37 -40 -38 -40 -80 -31 -37
9 -50 6 -97 -15 -53 -25 -53 -26 -27 -33 18 -4 40 -1 62 10 19 9 37 16 40 16
2 0 -5 -19 -17 -42 -12 -24 -28 -63 -34 -88 -7 -25 -16 -54 -20 -65 -4 -11 6
-2 22 20 16 22 37 61 47 88 18 48 39 67 74 67 11 0 32 14 45 30 14 17 28 30
31 30 3 0 8 -16 12 -35 4 -21 24 -55 49 -83 24 -26 49 -68 56 -92 l14 -45 5
45 c4 37 9 45 30 50 22 5 19 8 -22 19 -26 7 -54 21 -62 30 -24 26 -46 87 -46
125 0 39 14 57 59 76 18 7 31 20 31 30 0 20 15 25 119 40 85 12 128 32 143 65
13 29 34 26 109 -11 54 -27 85 -56 168 -159 43 -54 61 -85 61 -105 0 -18 11
-42 28 -62 17 -20 39 -68 55 -119 26 -83 27 -97 27 -309 0 -192 -2 -226 -17
-251 -16 -27 -16 -31 0 -58 15 -26 17 -62 17 -294 0 -167 4 -268 10 -272 6 -4
10 -67 9 -158 0 -122 -3 -148 -12 -133 -7 10 -20 28 -29 40 -17 20 -17 20 -7
-18 16 -57 -5 -69 -24 -14 l-15 43 -1 -41 c-1 -39 -3 -41 -40 -52 -48 -15
-105 -15 -171 -1 -53 11 -55 15 -63 84 l-3 30 -8 -30 c-14 -57 -26 -75 -53
-86 -37 -14 -289 -22 -383 -12 l-74 8 -11 60 -11 60 -8 -53 c-6 -38 -14 -55
-29 -64 -33 -17 -201 -23 -237 -8 -31 13 -31 14 -25 69 l5 56 -15 -39 c-20
-52 -29 -59 -21 -16 7 35 7 35 -21 -12 -24 -42 -32 -48 -60 -48 l-33 0 -2 385
c-2 212 -3 438 -3 502 l0 117 53 21 c28 11 52 22 52 25 0 3 -22 19 -49 36
l-48 32 2 144 c2 113 6 150 19 176 12 24 15 45 11 75 -6 41 -5 43 30 60 19 9
47 17 61 17 26 0 26 -1 3 89 -11 43 -6 52 83 137 108 104 200 152 347 178 88
16 267 20 276 7z m307 -57 c109 -56 225 -221 289 -413 29 -84 29 -87 29 -329
0 -209 -2 -248 -16 -272 -16 -26 -16 -29 5 -58 21 -29 21 -37 21 -406 l0 -376
-24 -12 c-57 -25 -56 -33 -56 382 0 377 0 381 -22 411 -21 28 -21 31 -5 58 15
25 17 61 17 271 l0 241 -46 141 -46 141 -102 111 c-55 61 -107 119 -115 129
-13 16 -12 17 13 8 14 -6 40 -18 58 -27z"/>
<path d="M667 1528 c15 -44 14 -155 -2 -190 -6 -15 -2 -18 24 -18 29 0 30 2
21 26 -6 14 -10 66 -10 115 l0 89 33 0 c43 0 76 -32 57 -55 -7 -8 -21 -15 -31
-15 -27 0 -23 -13 11 -32 22 -12 32 -29 41 -63 16 -63 31 -68 23 -8 -3 26 -14
57 -25 68 -18 20 -18 21 1 33 11 7 20 23 20 37 0 34 -44 55 -118 55 l-60 0 15
-42z"/>
<path d="M1257 1563 c-14 -3 -16 -10 -10 -26 4 -12 8 -66 8 -119 0 -96 0 -98
24 -98 18 0 22 4 16 18 -4 9 -10 59 -12 110 l-6 92 40 0 c49 0 84 -30 63 -55
-7 -8 -23 -15 -36 -15 -32 0 -31 -18 2 -26 18 -5 32 0 50 17 30 28 31 64 2 83
-25 15 -112 27 -141 19z"/>
<path d="M1019 1546 c8 -10 11 -49 9 -120 l-3 -106 29 0 c24 0 26 2 17 14 -8
10 -11 49 -9 120 l3 106 -29 0 c-24 0 -26 -2 -17 -14z"/>
</g>
</svg>
