<?xml version="1.0" standalone="no"?>
<!DOCTYPE svg PUBLIC "-//W3C//DTD SVG 20010904//EN"
 "http://www.w3.org/TR/2001/REC-SVG-20010904/DTD/svg10.dtd">
<svg version="1.0" xmlns="http://www.w3.org/2000/svg"
 width="183.000000pt" height="122.000000pt" viewBox="0 0 183.000000 122.000000"
 preserveAspectRatio="xMidYMid meet">

<g transform="translate(0.000000,122.000000) scale(0.100000,-0.100000)"
fill="#000000" stroke="none">
<path d="M620 1118 c0 -7 7 -69 15 -138 8 -69 15 -131 15 -137 0 -10 -62 -13
-274 -13 -151 0 -277 -3 -279 -7 -3 -5 12 -163 34 -353 21 -190 39 -355 39
-367 0 -17 6 -23 23 -22 13 1 16 3 6 6 -13 3 -22 64 -52 346 -21 188 -37 352
-37 365 l0 22 269 0 269 0 6 -27 c3 -16 10 -75 16 -133 6 -58 13 -120 17 -138
l5 -32 -201 0 -201 0 0 -30 c0 -20 5 -30 15 -30 13 0 15 -25 15 -169 0 -126
-3 -171 -12 -174 -7 -3 95 -5 227 -5 132 0 233 2 225 5 -13 3 -25 89 -68 486
-29 265 -55 494 -57 510 l-4 27 539 0 c297 0 540 -4 540 -8 0 -14 -79 -741
-90 -826 -9 -74 -12 -159 -4 -126 6 25 104 920 104 951 l0 29 -550 0 c-433 0
-550 -3 -550 -12z m70 -658 c0 -19 -7 -20 -195 -20 -188 0 -195 1 -195 20 0
19 7 20 195 20 188 0 195 -1 195 -20z m-310 -200 l0 -170 -25 0 -25 0 0 170 0
170 25 0 25 0 0 -170z m333 18 c9 -84 17 -161 17 -170 0 -16 -15 -18 -170 -18
l-170 0 0 170 0 170 153 0 154 0 16 -152z"/>
<path d="M1440 1060 c0 -15 -7 -20 -26 -20 -23 0 -25 -3 -22 -32 2 -25 8 -34
26 -36 14 -2 22 -10 22 -23 0 -16 7 -19 40 -19 33 0 40 3 40 20 0 15 7 20 25
20 22 0 25 4 25 35 0 31 -3 35 -25 35 -18 0 -25 5 -25 20 0 17 -7 20 -40 20
-33 0 -40 -3 -40 -20z"/>
<path d="M790 1008 c0 -26 3 -30 11 -18 8 11 12 12 16 3 9 -22 19 -14 18 15
-1 20 -7 28 -23 30 -19 3 -22 -1 -22 -30z m35 12 c-3 -5 -10 -10 -16 -10 -5 0
-9 5 -9 10 0 6 7 10 16 10 8 0 12 -4 9 -10z"/>
<path d="M854 1010 c1 -24 6 -35 16 -35 10 0 15 11 16 35 1 26 1 28 -3 8 -2
-16 -8 -28 -13 -28 -5 0 -11 12 -13 28 -4 20 -4 18 -3 -8z"/>
<path d="M910 1008 c0 -23 3 -29 9 -19 7 11 10 10 14 -5 4 -18 5 -18 6 1 1 17
3 18 11 5 7 -11 10 -7 10 18 0 17 -4 32 -10 32 -5 0 -10 -7 -10 -16 0 -8 -5
-12 -10 -9 -6 4 -8 11 -5 16 4 5 1 9 -4 9 -6 0 -11 -15 -11 -32z"/>
<path d="M980 1016 c-5 -15 -10 -28 -10 -29 0 -1 11 -2 25 -2 20 0 24 4 19 20
-11 35 -23 39 -34 11z"/>
<path d="M1031 1010 c0 -19 3 -29 6 -22 2 6 11 12 18 12 7 0 16 -6 18 -12 3
-7 6 2 6 21 1 32 0 33 -13 16 -13 -18 -13 -18 -24 1 -10 16 -11 14 -11 -16z"/>
<path d="M1110 1029 c0 -7 8 -18 18 -26 16 -14 16 -14 -1 -9 -12 4 -17 2 -15
-6 7 -19 27 -21 34 -3 4 9 -1 22 -12 31 -17 14 -17 15 -1 10 9 -3 17 -1 17 4
0 6 -9 10 -20 10 -11 0 -20 -5 -20 -11z"/>
<path d="M1173 1013 c-9 -26 -8 -28 13 -28 19 0 23 4 18 20 -11 35 -21 37 -31
8z"/>
<path d="M1220 1010 c0 -26 3 -31 10 -20 8 13 11 12 25 -5 17 -20 17 -20 9 0
-3 11 -6 29 -6 40 1 16 -1 17 -8 5 -9 -13 -11 -13 -20 0 -7 11 -10 6 -10 -20z"/>
<path d="M1283 1005 c0 -22 2 -30 4 -17 2 12 2 30 0 40 -3 9 -5 -1 -4 -23z"/>
<path d="M1310 1020 c6 -11 8 -25 5 -30 -3 -6 -1 -10 6 -10 7 0 9 10 7 25 -3
13 0 26 6 29 6 2 1 5 -12 5 -20 1 -21 -2 -12 -19z"/>
<path d="M760 810 l0 -70 80 0 81 0 -3 68 -3 67 -77 3 -78 3 0 -71z m138 -2
l-3 -53 -57 0 c-32 0 -58 3 -58 8 0 4 0 27 0 52 l0 45 61 0 60 0 -3 -52z"/>
<path d="M990 810 l0 -70 75 0 75 0 0 70 0 70 -75 0 -75 0 0 -70z m135 33 c-2
-10 -4 -35 -4 -55 l-1 -38 -60 0 -60 0 0 55 0 55 64 0 c56 0 64 -2 61 -17z"/>
<path d="M1210 810 l0 -70 75 0 75 0 0 70 0 70 -75 0 -75 0 0 -70z m140 -5 l0
-55 -60 0 -60 0 0 55 0 55 60 0 60 0 0 -55z"/>
<path d="M1437 874 c-4 -4 -7 -36 -7 -71 l0 -63 80 0 81 0 -3 68 -3 67 -70 3
c-39 1 -74 0 -78 -4z m133 -69 l0 -55 -60 0 -60 0 0 55 0 55 60 0 60 0 0 -55z"/>
<path d="M170 741 c0 -66 5 -71 71 -71 l59 0 0 55 0 55 -65 0 -65 0 0 -39z
m110 -16 l0 -45 -45 0 -45 0 0 45 0 45 45 0 45 0 0 -45z"/>
<path d="M340 725 l0 -55 60 0 60 0 0 55 0 55 -60 0 -60 0 0 -55z m108 -3 l3
-43 -48 3 c-44 3 -48 5 -51 31 -6 49 3 58 50 55 43 -3 43 -3 46 -46z"/>
<path d="M508 725 l4 -55 59 0 59 0 0 55 0 55 -62 0 -63 0 3 -55z m107 0 l0
-40 -47 -3 -48 -3 0 46 0 46 48 -3 47 -3 0 -40z"/>
<path d="M760 610 l0 -70 80 0 80 0 0 54 c0 85 -1 86 -86 86 l-74 0 0 -70z
m138 -1 l-3 -52 -55 0 -55 0 -3 52 -3 51 61 0 61 0 -3 -51z"/>
<path d="M990 610 l0 -70 75 0 75 0 0 70 0 70 -75 0 -75 0 0 -70z m132 1 l3
-49 -55 -4 c-30 -2 -58 -3 -62 -1 -5 3 -8 26 -8 54 l0 49 59 0 59 0 4 -49z"/>
<path d="M1210 610 l0 -70 78 0 77 0 -3 70 -4 70 -74 0 -74 0 0 -70z m140 0
c0 -33 -4 -50 -12 -51 -73 -4 -108 -3 -108 4 0 4 0 27 0 52 l0 45 60 0 60 0 0
-50z"/>
<path d="M1430 610 l0 -70 80 0 80 0 0 70 0 70 -80 0 -80 0 0 -70z m140 0 l0
-50 -60 0 -60 0 0 50 0 50 60 0 60 0 0 -50z"/>
<path d="M172 588 l3 -53 63 -3 62 -3 0 56 0 55 -66 0 -65 0 3 -52z m108 -3
l0 -45 -45 0 -45 0 0 45 0 45 45 0 45 0 0 -45z"/>
<path d="M340 585 l0 -55 60 0 60 0 0 55 0 55 -60 0 -60 0 0 -55z m110 0 l0
-45 -50 0 -50 0 0 38 c0 21 3 42 7 45 3 4 26 7 50 7 l43 0 0 -45z"/>
<path d="M508 585 l4 -55 59 0 59 0 0 55 0 55 -62 0 -63 0 3 -55z m107 0 l0
-40 -47 -3 -48 -3 0 46 0 46 48 -3 47 -3 0 -40z"/>
<path d="M965 329 c0 -129 -3 -173 -12 -176 -7 -3 -13 -11 -13 -19 0 -8 -4
-14 -10 -14 -5 0 -10 -7 -10 -15 0 -10 -16 -15 -62 -18 -35 -2 79 -4 254 -5
312 -2 316 -2 311 18 -3 11 -9 20 -13 20 -5 0 -13 14 -19 30 -5 17 -15 30 -20
30 -6 0 -8 -7 -5 -15 5 -13 -21 -15 -197 -15 -182 1 -202 2 -185 15 11 8 14
15 8 15 -9 0 -12 35 -12 125 l0 125 26 0 25 0 -3 -130 c-2 -95 0 -131 9 -134
7 -3 15 -1 18 4 4 6 1 10 -4 10 -7 0 -11 44 -11 125 l0 126 63 -3 62 -3 3
-123 c3 -126 2 -127 -38 -123 -12 1 -12 0 -2 -7 7 -5 23 -7 35 -5 21 4 22 7
19 134 l-3 129 59 0 60 0 4 -47 c1 -27 2 -83 0 -125 l-4 -78 -50 0 c-69 0 -58
-8 16 -11 l58 -3 -1 132 c-2 127 -1 132 19 132 19 0 20 -6 20 -122 0 -171 17
-138 22 42 l3 145 -210 3 -211 2 1 -171z m413 134 l3 -23 -205 0 -206 0 0 25
0 25 203 -2 c201 -3 202 -3 205 -25z m12 -333 c0 -6 -80 -10 -220 -10 -140 0
-220 4 -220 10 0 6 80 10 220 10 140 0 220 -4 220 -10z m20 -30 c0 -6 -87 -10
-240 -10 -153 0 -240 4 -240 10 0 6 87 10 240 10 153 0 240 -4 240 -10z"/>
<path d="M760 410 l0 -71 78 3 77 3 1 68 1 67 -79 0 -78 0 0 -70z m140 -1 l0
-49 -60 0 -60 0 0 40 c0 22 -1 43 -2 48 -3 7 101 20 115 14 4 -2 7 -25 7 -53z"/>
<path d="M1430 410 l0 -70 80 0 80 0 0 70 0 70 -80 0 -80 0 0 -70z m140 -1 l0
-49 -60 0 -60 0 0 49 0 50 53 3 c28 2 55 2 60 0 4 -2 7 -25 7 -53z"/>
<path d="M1117 293 c-14 -13 -7 -33 11 -33 26 0 34 11 21 27 -13 14 -22 16
-32 6z"/>
<path d="M1197 294 c-14 -15 -6 -34 14 -34 14 0 19 5 17 17 -3 18 -20 27 -31
17z"/>
<path d="M1070 176 c0 -9 30 -14 35 -6 4 6 -3 10 -14 10 -12 0 -21 -2 -21 -4z"/>
<path d="M1600 110 c0 -17 -8 -20 -82 -23 l-83 -3 88 -2 c87 -2 87 -2 87 23 0
14 -2 25 -5 25 -3 0 -5 -9 -5 -20z"/>
<path d="M238 83 c12 -2 30 -2 40 0 9 3 -1 5 -23 4 -22 0 -30 -2 -17 -4z"/>
</g>
</svg>
