<?xml version="1.0" standalone="no"?>
<!DOCTYPE svg PUBLIC "-//W3C//DTD SVG 20010904//EN"
 "http://www.w3.org/TR/2001/REC-SVG-20010904/DTD/svg10.dtd">
<svg version="1.0" xmlns="http://www.w3.org/2000/svg"
 width="275.000000pt" height="183.000000pt" viewBox="0 0 275.000000 183.000000"
 preserveAspectRatio="xMidYMid meet">

<g transform="translate(0.000000,183.000000) scale(0.100000,-0.100000)"
fill="#000000" stroke="none">
<path d="M695 1815 c-92 -20 -144 -44 -159 -74 -31 -61 -46 -203 -26 -242 35
-65 309 -131 455 -109 39 5 85 14 104 20 19 5 44 7 56 4 35 -9 148 14 178 37
27 19 30 20 47 4 21 -19 65 -123 80 -190 8 -34 5 -87 -10 -216 -11 -95 -22
-174 -24 -176 -2 -2 -30 9 -62 25 -94 47 -159 63 -294 69 -156 7 -242 -12
-407 -91 -100 -48 -116 -54 -145 -45 -103 29 -438 81 -438 67 0 -4 12 -8 28
-8 15 0 105 -16 200 -34 192 -38 226 -54 259 -126 10 -22 20 -40 23 -40 3 0
17 23 32 50 54 97 194 181 336 202 159 23 374 -27 450 -105 17 -18 53 -54 79
-82 55 -57 180 -131 257 -153 78 -22 394 -22 513 0 100 19 203 54 203 69 0 5
-41 9 -90 9 -125 0 -228 23 -335 75 -238 115 -407 360 -392 569 9 132 11 133
121 82 42 -19 76 -31 76 -28 0 19 -37 56 -122 123 -51 40 -107 86 -125 102
-44 41 -71 38 -139 -18 -56 -45 -60 -47 -111 -43 -29 3 -53 3 -53 0 0 -2 10
-12 22 -22 19 -15 20 -20 9 -33 -7 -9 -29 -21 -48 -28 -33 -11 -37 -10 -59 17
-12 16 -33 46 -46 66 -22 36 -54 58 -83 58 -19 0 -19 -10 1 -59 21 -53 16 -95
-13 -99 -26 -4 -62 53 -92 142 -27 83 -45 99 -104 93 -26 -2 -50 -7 -54 -10
-3 -4 8 -38 26 -75 23 -52 30 -77 25 -100 -12 -61 -35 -31 -79 107 -33 102
-80 156 -121 141 -37 -14 -44 -13 -44 10 0 26 32 39 135 52 44 5 96 14 115 18
30 7 25 8 -30 8 -36 0 -92 -6 -125 -13z m-76 -282 c1 -14 -5 -23 -14 -23 -11
0 -15 11 -15 43 0 24 3 47 8 51 7 8 19 -31 21 -71z"/>
<path d="M1550 1819 c74 -20 92 -35 202 -156 95 -104 146 -149 313 -276 262
-197 336 -257 420 -342 74 -73 133 -172 155 -255 6 -25 25 -64 41 -87 16 -23
32 -55 35 -71 6 -27 1 -34 -37 -62 -108 -78 -173 -94 -465 -111 -157 -10 -248
-10 -415 -1 -118 7 -225 15 -239 17 -14 3 25 -19 85 -49 80 -40 115 -63 128
-84 9 -17 17 -35 17 -41 0 -14 -468 -15 -665 -1 -227 16 -391 46 -415 75 -19
23 15 36 221 86 223 55 293 83 351 141 44 44 45 61 1 30 -47 -33 -145 -79
-216 -101 -160 -49 -336 -47 -528 6 -52 14 -115 32 -141 39 -82 22 -279 38
-312 25 -26 -10 -28 -14 -15 -27 8 -8 50 -30 93 -48 42 -19 77 -38 78 -42 0
-5 -47 -25 -105 -44 -57 -19 -112 -41 -121 -49 -14 -11 -16 -41 -16 -202 l0
-189 56 0 c55 0 57 1 124 65 l67 65 169 -15 c452 -40 436 -39 638 -27 363 23
652 80 1032 202 84 27 203 63 265 81 195 53 346 136 385 210 20 41 18 61 -16
110 -16 24 -39 74 -50 111 -47 155 -152 265 -500 528 -157 118 -242 191 -365
313 -162 162 -198 188 -257 186 l-33 -1 35 -9z"/>
</g>
</svg>
