<?xml version="1.0" standalone="no"?>
<!DOCTYPE svg PUBLIC "-//W3C//DTD SVG 20010904//EN"
 "http://www.w3.org/TR/2001/REC-SVG-20010904/DTD/svg10.dtd">
<svg version="1.0" xmlns="http://www.w3.org/2000/svg"
 width="627.200000pt" height="237.600000pt" viewBox="0 0 627.200000 237.600000"
 preserveAspectRatio="xMidYMid meet">
<metadata>
Created by potrace 1.13, written by Peter Selinger 2001-2015
</metadata>
<g transform="translate(0.000000,237.600000) scale(0.080000,-0.080000)"
fill="#000000" stroke="none">
<path d="M43 2909 c-16 -16 -17 -93 -2 -122 6 -12 54 -66 107 -119 75 -76 103
-98 124 -98 33 0 48 -14 89 -86 17 -31 40 -59 50 -61 14 -4 19 -15 19 -40 0
-38 19 -63 48 -63 11 0 30 -8 43 -19 13 -10 33 -21 45 -25 11 -3 27 -22 34
-41 8 -19 17 -35 20 -35 4 0 22 -49 40 -110 31 -100 36 -110 61 -115 35 -8 79
-42 79 -60 0 -8 18 -33 40 -55 22 -22 40 -47 40 -54 0 -21 60 -134 88 -164 6
-7 12 -26 12 -42 0 -42 27 -92 63 -115 18 -12 34 -33 39 -52 8 -29 37 -55 103
-88 13 -7 21 -23 23 -43 2 -24 10 -36 28 -44 13 -6 24 -15 24 -19 0 -4 25 -24
56 -44 31 -21 70 -49 88 -64 17 -15 43 -33 59 -41 15 -7 38 -28 52 -46 40 -52
105 -114 120 -114 23 0 28 20 9 41 -15 17 -15 19 -1 19 9 0 19 -4 22 -10 3 -5
19 -10 36 -10 16 0 29 5 29 10 0 18 28 11 43 -11 10 -13 23 -19 38 -17 20 3
25 11 32 58 5 30 7 99 4 153 -2 54 0 100 5 103 12 8 10 41 -4 64 -10 15 -9 22
6 39 10 11 21 34 25 51 l6 32 24 -21 c27 -23 70 -28 89 -9 17 17 15 38 -4 38
-12 0 -15 6 -11 22 7 26 -8 58 -28 58 -25 0 -55 38 -55 69 0 33 -28 88 -49 96
-8 3 -34 3 -57 -1 -38 -5 -45 -10 -54 -40 -7 -19 -16 -34 -22 -34 -6 0 -8 -13
-5 -34 5 -31 4 -33 -23 -32 -20 1 -25 4 -19 12 11 14 1 44 -15 44 -17 0 -33
31 -40 80 -12 76 -13 77 -64 84 -59 9 -112 35 -112 57 0 10 14 23 30 31 36 15
39 35 8 48 l-23 9 23 7 c12 3 22 12 22 20 0 27 -19 61 -38 66 -15 4 -18 12
-15 35 5 31 -16 58 -39 51 -7 -3 -23 9 -36 24 -31 36 -85 37 -90 2 -2 -17 4
-23 26 -27 16 -3 32 -12 35 -20 4 -11 -3 -12 -31 -7 l-37 6 0 63 0 64 -45 13
c-25 7 -52 13 -60 11 -8 -1 -16 7 -18 18 -10 66 -12 68 -44 61 -21 -4 -38 0
-58 14 -34 24 -66 26 -78 4 -8 -14 -11 -14 -30 6 -11 12 -26 35 -32 51 -8 17
-20 29 -31 29 -12 0 -19 7 -19 18 0 21 -40 62 -60 62 -7 0 -20 7 -29 15 -9 8
-26 23 -38 34 -12 11 -33 23 -46 26 -13 4 -38 22 -56 41 -18 19 -39 34 -46 34
-8 0 -15 13 -17 32 -2 24 -10 36 -30 46 -16 7 -28 21 -28 30 0 9 -18 33 -40
53 l-39 36 -107 2 c-108 2 -132 8 -171 43 -26 24 -93 35 -110 17z m1587 -1288
c0 -5 10 -11 22 -15 18 -4 20 -8 10 -18 -23 -23 -13 -36 29 -36 l41 -1 -6 33
c-8 42 1 46 95 46 67 0 69 -1 69 -26 0 -37 16 -61 50 -72 26 -9 30 -16 30 -46
0 -19 5 -36 12 -38 17 -6 0 -28 -21 -28 -10 0 -28 9 -41 20 -31 27 -50 25 -50
-4 0 -13 -9 -35 -20 -49 -23 -29 -26 -57 -8 -75 10 -10 10 -17 0 -32 -8 -14
-10 -41 -6 -89 9 -89 -4 -221 -21 -227 -7 -3 -24 6 -38 20 -30 30 -45 33 -53
11 -8 -20 -29 -19 -60 1 -33 22 -56 5 -36 -27 8 -12 11 -23 9 -26 -6 -5 -78
66 -112 111 -14 18 -37 39 -52 46 -16 8 -42 26 -59 41 -18 15 -57 43 -88 64
-31 20 -56 40 -56 44 0 4 -11 13 -25 19 -18 8 -25 19 -25 39 0 23 -11 35 -58
65 -42 28 -60 46 -67 70 -6 19 -23 41 -42 53 -34 22 -63 72 -63 110 l0 25 320
0 c179 0 320 -4 320 -9z"/>
<path d="M5347 2723 c-4 -3 -7 -30 -7 -60 0 -46 3 -53 19 -53 16 0 21 9 27 45
3 25 4 52 0 60 -6 15 -28 20 -39 8z"/>
<path d="M3548 2692 c-16 -2 -28 -8 -28 -13 0 -5 -6 -9 -14 -9 -18 0 -32 -45
-40 -124 -7 -65 -19 -86 -47 -86 -21 0 -34 -37 -26 -72 5 -18 -1 -26 -26 -39
-25 -12 -32 -22 -32 -45 0 -16 -8 -43 -17 -61 -15 -27 -25 -32 -70 -38 -29 -4
-60 -14 -70 -22 -13 -12 -24 -12 -60 -3 -23 7 -46 17 -50 23 -3 5 -32 12 -63
15 -65 5 -101 -9 -109 -44 -4 -15 -14 -24 -26 -24 -10 0 -21 -4 -25 -10 -3 -5
-42 -8 -86 -7 -50 1 -83 -3 -87 -10 -7 -11 -26 -17 -48 -14 -6 0 -35 23 -64
51 -29 27 -57 50 -62 50 -4 0 -8 15 -8 34 0 35 -13 46 -51 46 -10 0 -19 -7
-19 -15 0 -9 -10 -26 -23 -39 -25 -25 -53 -98 -43 -114 3 -6 2 -13 -3 -17 -6
-3 -7 -28 -4 -58 5 -38 13 -57 30 -70 23 -18 32 -57 13 -57 -18 0 -11 -59 9
-71 11 -8 16 -19 13 -32 -3 -12 1 -23 11 -29 12 -6 15 -17 11 -37 -8 -38 10
-47 45 -22 35 25 42 26 35 6 -4 -8 -1 -15 5 -15 14 0 15 -47 1 -55 -15 -9 -12
-43 4 -52 7 -4 16 -30 20 -58 4 -27 10 -67 13 -87 5 -40 18 -46 53 -28 13 7
19 6 23 -4 8 -21 84 -31 104 -14 9 7 35 13 57 13 l42 0 -3 -43 c-4 -51 15 -64
56 -39 18 10 40 14 66 11 35 -5 45 -1 74 26 30 28 35 30 50 15 10 -8 23 -15
31 -15 7 0 1 9 -13 20 -33 26 -40 25 -79 -10 -35 -32 -49 -36 -79 -20 -15 9
-26 6 -49 -10 -39 -28 -49 -20 -44 33 l4 43 -52 1 c-32 1 -59 -4 -68 -13 -21
-18 -90 -8 -90 13 0 15 -13 14 -51 -1 -13 -6 -18 1 -23 36 -3 24 -10 67 -14
96 l-8 52 543 0 c536 0 543 0 543 -20 0 -11 5 -20 10 -20 14 0 12 -20 -5 -54
-8 -15 -15 -41 -15 -57 0 -18 -6 -32 -15 -36 -13 -4 -15 -17 -9 -73 4 -44 2
-75 -5 -89 -16 -30 -31 -26 -31 8 0 36 -15 47 -43 33 -53 -26 -117 -52 -129
-52 -7 0 -26 -7 -42 -15 -38 -20 -46 -12 -46 44 0 30 -6 53 -14 60 -23 19 -84
25 -102 10 -13 -10 -17 -10 -25 2 -5 8 -9 22 -9 32 0 10 -7 17 -17 17 -11 0
-14 -3 -7 -8 6 -4 14 -19 18 -34 4 -19 13 -28 26 -28 11 0 20 5 20 11 0 16 80
4 91 -13 5 -7 9 -35 9 -61 0 -57 15 -67 64 -43 19 9 39 16 46 16 11 0 89 32
121 50 22 11 29 3 29 -32 0 -21 5 -28 20 -28 31 0 43 36 37 111 -5 53 -3 69 9
73 8 3 14 18 14 35 0 16 7 42 15 57 16 32 20 70 7 76 -5 2 -12 15 -16 31 -5
20 -2 29 9 33 8 4 15 12 15 20 0 8 15 21 33 30 18 8 42 31 55 50 12 19 34 40
47 46 20 9 25 18 24 47 0 20 -4 45 -8 56 -8 21 7 95 19 95 4 0 13 13 20 30 15
36 56 59 90 50 46 -12 102 -6 113 12 9 13 5 22 -19 45 -38 38 -100 83 -113 83
-17 0 -42 45 -35 63 3 8 12 18 20 21 20 8 17 25 -11 62 -14 18 -25 37 -25 41
0 5 -15 26 -33 46 -25 26 -31 39 -23 47 8 8 5 17 -13 31 l-23 19 46 0 c55 0
61 17 18 58 -16 15 -31 34 -34 43 -12 31 -140 47 -260 31z"/>
<path d="M2211 2656 c-29 -30 -23 -76 9 -76 11 0 20 -4 20 -10 0 -16 27 -11
34 6 9 24 7 47 -6 77 -16 33 -28 34 -57 3z"/>
<path d="M122 2448 c-24 -24 -7 -68 26 -68 8 0 25 -9 39 -20 33 -25 73 -27 73
-2 0 16 -98 102 -117 102 -5 0 -14 -5 -21 -12z"/>
<path d="M5638 2387 c-32 -30 -42 -61 -28 -87 11 -20 36 -26 56 -12 18 12 35
94 22 109 -15 18 -21 17 -50 -10z"/>
<path d="M5518 2301 c-17 -18 -32 -51 -41 -92 -17 -69 -20 -159 -7 -159 13 0
33 -62 30 -98 -1 -22 6 -42 24 -63 14 -17 26 -36 26 -44 0 -15 43 -45 65 -45
8 0 15 5 15 10 0 11 -21 52 -31 60 -10 8 -32 83 -34 115 -2 42 4 48 28 32 12
-8 39 -17 60 -21 34 -6 37 -5 37 16 0 14 -13 34 -32 50 l-33 26 38 18 c37 17
38 20 35 64 -3 41 -5 45 -31 48 -16 2 -39 -4 -52 -12 -33 -22 -35 -21 -35 19
0 20 -5 35 -12 35 -6 0 -4 8 7 20 20 22 14 50 -12 50 -10 -1 -30 -14 -45 -29z"/>
<path d="M5038 2221 c-7 -12 -18 -21 -25 -21 -7 0 -28 -16 -47 -35 -20 -19
-39 -35 -42 -35 -4 0 -15 -7 -24 -15 -14 -13 -28 -13 -99 -3 -67 10 -84 10
-90 -1 -7 -10 -15 -10 -40 4 -18 9 -65 19 -104 22 -43 3 -76 11 -83 19 -6 8
-39 17 -73 20 -55 6 -61 5 -61 -12 -1 -10 -10 -30 -21 -43 -15 -18 -23 -21
-31 -13 -17 17 -48 15 -48 -3 0 -9 -7 -18 -15 -21 -8 -4 -15 -11 -15 -16 0 -5
-9 -23 -21 -39 -14 -20 -19 -39 -16 -56 8 -42 -19 -128 -59 -188 -35 -52 -36
-58 -30 -110 5 -44 3 -55 -8 -55 -16 0 -26 -21 -26 -57 0 -27 -21 -53 -43 -53
-21 0 -31 -32 -13 -42 12 -7 13 -15 6 -33 -14 -36 -2 -81 26 -96 19 -10 27
-10 36 -1 25 25 45 13 57 -32 13 -54 14 -123 2 -130 -5 -3 -12 -24 -15 -46 -3
-22 -9 -57 -12 -77 -5 -32 -2 -42 20 -62 21 -19 31 -22 63 -17 21 4 57 9 81
12 36 5 42 9 42 29 0 13 -5 25 -11 27 -5 2 -10 19 -9 38 1 19 1 72 0 118 -1
46 4 89 9 96 14 16 2 113 -15 131 -16 16 -5 27 49 50 59 25 70 21 64 -22 -2
-21 -10 -52 -18 -70 -12 -30 -11 -33 25 -77 26 -32 45 -46 62 -46 28 0 29 -7
9 -34 -20 -27 -19 -69 3 -89 9 -8 38 -18 65 -22 l47 -7 0 30 c0 25 6 32 31 41
40 14 59 14 59 1 0 -5 -9 -10 -20 -10 -11 0 -20 -4 -20 -10 0 -5 -9 -10 -20
-10 -14 0 -20 -7 -20 -24 0 -13 6 -27 13 -30 10 -5 10 -7 0 -12 -21 -9 -15
-52 7 -59 11 -3 20 -14 20 -24 0 -13 10 -21 31 -25 37 -7 49 -1 49 24 0 11 10
20 25 24 31 8 34 41 5 58 -25 16 -27 50 -3 46 21 -4 40 57 23 77 -8 10 -8 19
1 33 7 11 9 27 6 36 -8 20 -53 21 -61 1 -8 -23 -20 -18 -60 22 -39 41 -48 85
-20 101 14 8 14 12 3 33 -13 24 -15 30 -18 49 0 6 -8 10 -16 10 -8 0 -23 17
-32 37 -10 21 -33 47 -52 60 l-33 23 26 10 c14 5 26 14 26 20 0 5 12 13 28 16
15 4 52 32 82 64 55 58 93 80 105 60 3 -5 15 -10 25 -10 23 0 37 54 20 75 -18
21 -120 21 -120 0 0 -11 -11 -15 -40 -15 -23 0 -52 -8 -66 -17 -22 -14 -31
-15 -61 -4 -34 13 -36 12 -64 -20 -16 -19 -29 -39 -29 -46 0 -40 -74 -23 -96
22 -8 18 -25 36 -38 39 -18 4 -26 17 -36 59 -16 67 -2 117 41 148 26 18 34 19
65 9 19 -7 58 -10 87 -7 112 12 289 7 311 -8 22 -16 112 -19 179 -7 29 5 45
16 65 44 15 20 49 65 76 99 37 48 46 66 39 78 -16 25 -60 26 -75 2z m-558
-608 c1 -10 15 -27 33 -38 18 -11 39 -36 48 -54 9 -19 26 -38 38 -43 12 -4 20
-12 16 -18 -3 -5 -1 -18 4 -28 6 -11 6 -23 2 -28 -5 -5 -12 -22 -15 -39 -5
-26 0 -36 35 -72 43 -44 73 -54 83 -28 6 17 32 20 41 5 3 -5 0 -18 -7 -30 -9
-14 -10 -25 -3 -37 16 -27 7 -63 -16 -63 -26 0 -25 -41 1 -65 26 -24 25 -33
-5 -41 -15 -4 -25 -13 -25 -24 0 -11 -4 -21 -8 -24 -16 -10 -52 7 -52 24 0 10
-10 20 -21 23 -16 4 -20 10 -14 24 5 10 8 32 7 49 -2 27 3 34 33 48 61 29 34
58 -36 37 -34 -10 -39 -16 -39 -41 0 -28 -1 -29 -37 -23 -66 10 -90 47 -58 89
23 30 19 54 -9 54 -17 0 -36 14 -61 44 -35 44 -36 45 -21 75 9 16 16 48 16 71
0 37 -2 40 -27 40 -37 -1 -112 -35 -120 -56 -3 -9 0 -20 7 -24 17 -10 31 -101
18 -117 -5 -7 -9 -49 -9 -95 0 -46 0 -103 0 -128 -1 -24 4 -46 10 -48 27 -9 8
-30 -31 -35 -24 -3 -57 -9 -73 -12 -42 -9 -81 31 -70 72 3 15 9 45 12 66 3 20
9 40 14 43 13 7 11 96 -2 150 -10 38 -15 44 -38 44 -15 0 -32 -5 -38 -11 -9
-9 -16 -8 -27 4 -18 18 -22 50 -12 88 5 16 3 29 -3 33 -16 10 -13 26 5 26 23
0 44 25 44 53 0 36 10 57 26 57 8 0 14 5 14 10 0 6 68 10 185 10 169 0 185 -1
185 -17z"/>
<path d="M365 2200 c-12 -20 6 -68 41 -108 18 -22 34 -45 34 -51 0 -17 47 -13
54 5 3 9 6 31 6 49 0 61 -110 146 -135 105z"/>
<path d="M544 1956 c-8 -20 25 -66 47 -66 23 0 24 23 3 55 -18 28 -42 33 -50
11z"/>
<path d="M1606 1945 c-11 -31 -6 -45 17 -45 36 0 54 16 41 37 -15 24 -50 28
-58 8z"/>
<path d="M6030 1949 c0 -6 -7 -9 -15 -5 -22 8 -45 -4 -45 -23 0 -10 13 -27 30
-39 27 -20 33 -21 77 -10 73 19 85 50 28 74 -41 17 -75 18 -75 3z"/>
<path d="M5458 1899 c-24 -13 -23 -52 1 -73 42 -38 79 7 50 60 -13 26 -25 29
-51 13z"/>
<path d="M6281 1889 c-13 -5 -35 -18 -50 -28 -14 -10 -46 -23 -71 -28 -41 -8
-45 -11 -48 -41 -4 -35 -22 -45 -22 -12 0 17 -7 20 -40 20 -36 0 -40 -2 -40
-25 0 -14 13 -39 31 -57 24 -26 39 -33 72 -34 69 -2 97 -13 103 -43 8 -35 70
-92 97 -90 42 4 122 -3 107 -8 -8 -4 -22 -16 -32 -28 -16 -20 -22 -22 -65 -14
-63 12 -83 5 -83 -32 0 -25 4 -29 28 -29 15 0 35 -8 43 -18 9 -11 27 -26 40
-35 18 -14 22 -24 21 -58 -4 -65 4 -79 46 -79 44 1 68 17 77 53 7 26 24 35 39
20 3 -4 14 -8 24 -9 9 -2 18 -8 20 -13 2 -6 9 -11 17 -11 7 0 18 -7 25 -15 8
-9 22 -12 41 -8 24 5 29 2 29 -14 0 -29 70 -64 143 -70 42 -4 84 -17 129 -39
37 -19 78 -34 90 -34 13 0 32 -7 42 -15 11 -8 26 -15 33 -15 19 0 123 -71 123
-84 1 -6 14 -27 30 -46 17 -19 30 -42 30 -51 0 -31 11 -48 46 -70 35 -21 37
-45 3 -34 -14 5 -19 2 -19 -13 0 -11 7 -25 15 -32 25 -21 18 -40 -15 -40 -17
0 -42 -7 -56 -17 -50 -32 -119 -162 -98 -183 5 -5 45 -4 89 0 51 6 83 6 89 0
6 -6 21 -10 34 -10 17 0 26 8 33 30 12 33 19 36 37 18 10 -10 17 -10 32 0 44
27 75 8 190 -111 28 -28 55 -47 68 -47 22 0 22 1 22 190 0 132 -4 196 -12 210
-10 15 -10 26 0 53 8 24 12 127 12 353 l0 320 -37 17 c-21 9 -69 19 -108 23
-68 7 -123 28 -205 79 -19 12 -61 29 -92 39 -32 10 -60 22 -64 27 -9 16 -73
10 -113 -10 -44 -23 -65 -45 -59 -63 5 -15 -43 -38 -79 -38 -35 0 -60 -16 -67
-44 -3 -14 -15 -28 -27 -31 -11 -4 -25 -18 -32 -32 -24 -53 -62 -83 -105 -83
-37 0 -41 3 -61 45 -12 25 -21 57 -21 71 0 24 -3 26 -30 22 -37 -5 -42 1 -55
68 -10 45 -9 55 7 74 23 29 23 45 -3 69 -13 12 -19 26 -15 36 3 9 1 25 -4 36
-9 15 -22 19 -70 19 -32 0 -61 4 -64 9 -3 5 -26 18 -51 30 -47 22 -104 26
-144 10z m329 -278 c5 -11 10 -31 10 -44 0 -32 22 -49 53 -42 22 6 25 3 30
-29 3 -19 13 -51 22 -70 16 -34 20 -36 65 -36 41 0 53 5 79 30 16 17 33 39 36
51 4 11 18 25 31 31 14 6 27 22 30 35 7 27 32 43 65 43 35 0 89 23 89 37 0 10
32 13 142 13 l141 0 76 -39 c57 -29 93 -40 146 -45 39 -4 87 -14 108 -24 l38
-16 -4 -321 c-3 -176 -8 -339 -12 -361 -4 -27 -3 -44 4 -48 17 -11 15 -376 -2
-376 -8 0 -34 21 -59 48 -89 95 -125 122 -162 122 -19 0 -38 -5 -41 -10 -4 -7
-13 -6 -26 1 -27 14 -47 5 -51 -23 -2 -18 -8 -22 -28 -20 -41 5 -72 6 -135 2
-55 -3 -60 -2 -57 16 7 38 37 89 74 126 30 30 46 38 73 38 29 0 35 4 35 22 0
12 -7 30 -17 40 -15 17 -15 18 6 18 33 0 39 30 10 49 -40 27 -59 50 -59 74 0
12 -13 38 -30 57 -16 19 -29 40 -30 46 0 13 -104 84 -123 84 -7 0 -22 7 -33
15 -10 8 -29 15 -42 15 -12 0 -54 16 -92 35 -51 26 -83 35 -118 35 -61 0 -152
42 -152 71 0 14 -7 19 -30 19 -28 0 -68 16 -80 32 -8 10 -59 28 -80 28 -11 0
-20 -10 -25 -27 -8 -33 -32 -52 -67 -53 -32 0 -43 25 -34 76 6 28 3 37 -20 56
-15 13 -34 31 -43 41 -8 9 -28 17 -43 17 -21 0 -28 5 -28 19 0 26 18 31 76 20
46 -9 50 -8 72 16 24 29 39 31 92 17 42 -10 74 -1 84 24 12 32 -8 37 -96 25
-129 -18 -175 -12 -217 26 l-36 33 187 0 c175 0 188 -1 198 -19z m-52 -58 c-4
-23 -58 -29 -90 -11 -22 12 -22 13 17 19 71 11 77 10 73 -8z"/>
<path d="M6864 1815 c18 -73 22 -76 78 -73 53 3 78 25 40 34 -11 3 -29 19 -41
35 -16 21 -30 29 -52 29 -28 0 -31 -2 -25 -25z"/>
<path d="M600 1766 c0 -38 48 -119 76 -130 52 -20 59 22 18 109 -24 51 -29 55
-60 55 -32 0 -34 -2 -34 -34z"/>
<path d="M4690 1731 c-6 -17 -9 -35 -5 -40 11 -19 53 -13 60 8 7 22 35 18 35
-5 0 -18 24 -18 40 1 29 35 -4 62 -81 64 -31 1 -38 -3 -49 -28z"/>
<path d="M5472 1717 c-26 -28 -28 -43 -6 -64 12 -13 22 -14 49 -6 18 6 44 8
58 6 17 -3 26 1 31 13 3 9 5 18 4 19 -38 28 -86 55 -99 55 -8 0 -25 -10 -37
-23z"/>
<path d="M6810 1680 c0 -13 9 -22 28 -26 15 -3 48 -13 73 -21 55 -19 159 -11
159 13 0 15 -9 17 -110 33 -149 23 -150 23 -150 1z"/>
<path d="M4965 1683 c-6 -4 -18 -20 -27 -35 -17 -25 -17 -27 7 -42 27 -18 66
-21 81 -6 5 5 62 11 126 12 79 2 121 7 130 16 20 20 -8 32 -82 32 -36 1 -85 5
-110 10 -101 19 -115 20 -125 13z m100 -60 c-22 -3 -44 -9 -49 -14 -14 -13
-38 -11 -60 6 -18 14 -12 15 65 13 46 -1 66 -3 44 -5z"/>
<path d="M5883 1658 c-53 -26 2 -77 66 -63 37 8 43 17 35 50 -5 21 -12 25 -43
24 -20 0 -46 -5 -58 -11z m87 -37 c0 -17 -50 -22 -78 -7 -27 15 -27 15 26 16
28 0 52 -4 52 -9z"/>
<path d="M754 1598 c-5 -16 -1 -27 16 -40 49 -40 83 -6 40 40 -26 28 -47 28
-56 0z m54 -19 c18 -28 8 -35 -22 -15 -15 9 -23 22 -20 30 7 19 26 12 42 -15z"/>
<path d="M835 1529 c-20 -31 43 -119 84 -119 16 0 21 6 21 25 0 14 -4 25 -9
25 -5 0 -22 18 -38 40 -28 40 -46 49 -58 29z m86 -79 c5 0 9 -7 9 -15 0 -23
-19 -18 -49 13 -30 30 -44 59 -35 74 3 5 19 -9 36 -31 16 -23 34 -41 39 -41z"/>
<path d="M2123 1514 c-10 -25 -10 -100 0 -110 4 -4 30 -9 57 -11 46 -2 51 -1
65 27 33 64 11 100 -66 108 -41 4 -50 2 -56 -14z m98 -11 c33 -20 35 -32 14
-73 -17 -33 -25 -36 -43 -18 -9 9 -15 9 -23 1 -30 -30 -50 22 -33 85 8 27 43
29 85 5z"/>
<path d="M5623 1482 c-20 -2 -37 -11 -43 -23 -6 -10 -17 -19 -25 -19 -18 0
-21 -50 -4 -67 8 -8 8 -13 0 -17 -13 -9 -15 -53 -2 -61 13 -7 90 10 104 24 7
7 6 15 -3 26 -11 13 -8 15 19 15 18 0 34 6 37 14 5 12 11 12 39 -4 27 -15 41
-17 67 -9 42 12 88 12 88 0 0 -5 10 -13 23 -17 12 -4 36 -17 53 -30 41 -32 70
-31 78 2 8 29 -1 64 -15 64 -5 0 -9 5 -9 10 0 35 -109 94 -139 76 -5 -3 -14 1
-21 9 -15 18 -61 20 -77 4 -7 -7 -19 -8 -30 -4 -20 8 -91 12 -140 7z m180 -13
c15 15 42 14 56 -3 6 -7 29 -13 51 -13 46 0 87 -24 100 -59 5 -13 14 -24 19
-24 13 0 20 -25 14 -49 -7 -27 -19 -26 -57 3 -17 13 -41 26 -53 30 -13 4 -23
12 -23 18 0 7 -22 9 -66 5 -51 -5 -75 -3 -101 10 -31 15 -35 14 -46 -2 -7 -9
-20 -16 -28 -15 -34 5 -41 0 -35 -25 5 -21 2 -25 -21 -31 -16 -3 -34 -7 -41
-10 -18 -5 -27 23 -12 40 8 11 8 20 1 35 -15 28 -14 51 4 51 8 0 19 9 25 19
12 24 52 29 139 18 42 -5 67 -5 74 2z"/>
<path d="M5253 1433 c-29 -4 -33 -8 -33 -32 0 -21 11 -39 40 -65 35 -31 47
-36 90 -36 95 0 126 47 71 108 -27 29 -35 32 -83 30 -29 0 -68 -3 -85 -5z
m157 -33 c37 -38 38 -53 4 -75 -41 -27 -107 -15 -150 26 -44 43 -45 66 -1 72
94 12 117 8 147 -23z"/>
<path d="M4514 1076 c-9 -23 22 -66 47 -66 17 0 20 5 17 38 -3 32 -7 37 -31
40 -18 2 -29 -2 -33 -12z m54 -29 c4 -33 -11 -35 -32 -5 -12 17 -13 24 -3 30
19 12 32 4 35 -25z"/>
<path d="M1208 1063 c-25 -6 -23 -40 3 -53 25 -14 49 -6 49 15 0 15 -24 47
-32 44 -2 -1 -11 -3 -20 -6z m31 -22 c7 -5 10 -14 7 -20 -8 -13 -46 3 -46 19
0 12 20 13 39 1z"/>
<path d="M6646 1018 c-8 -13 -18 -42 -22 -65 -4 -24 -12 -43 -19 -43 -13 0
-31 -113 -20 -130 9 -14 59 -12 73 2 7 7 12 27 12 44 0 26 4 33 23 36 20 3 22
9 25 70 2 37 -2 77 -8 88 -14 27 -46 25 -64 -2z m53 -7 c6 -10 10 -45 8 -77
-2 -53 -4 -59 -24 -62 -19 -3 -23 -10 -23 -36 0 -17 -5 -37 -12 -44 -14 -14
-44 -16 -52 -3 -10 16 6 111 19 111 7 0 15 19 19 43 7 44 30 87 46 87 5 0 14
-9 19 -19z"/>
<path d="M1844 938 c-11 -13 -24 -35 -28 -50 -3 -16 -13 -28 -21 -28 -8 0 -15
-8 -15 -19 0 -14 -6 -17 -24 -14 -18 4 -26 0 -31 -17 -4 -12 -4 -24 -1 -27 3
-3 34 -7 68 -8 83 -3 124 -22 120 -54 -6 -37 22 -51 98 -51 50 0 78 -6 116
-24 58 -29 174 -46 174 -26 0 10 20 12 83 7 79 -5 105 -13 217 -66 25 -11 79
-26 120 -32 72 -10 90 -11 154 -9 15 1 49 -4 75 -10 37 -10 54 -9 86 2 37 13
45 12 92 -7 29 -11 55 -24 59 -28 4 -4 19 -7 33 -7 14 0 35 -7 45 -15 44 -33
82 -8 46 30 -12 13 -17 25 -12 29 15 9 54 -8 76 -33 11 -11 27 -21 38 -21 21
0 98 48 98 62 0 16 -54 57 -84 64 -16 3 -38 1 -50 -6 -30 -16 -76 2 -76 30 0
34 -56 52 -137 42 -79 -9 -139 9 -146 44 -3 19 0 20 55 16 44 -3 71 1 113 18
59 24 64 30 39 51 -19 16 -211 14 -231 -2 -7 -6 -13 -6 -17 0 -3 5 -22 9 -42
9 -20 0 -41 5 -47 11 -6 6 -23 11 -38 11 -15 0 -31 5 -35 11 -3 6 -20 9 -37 6
-24 -3 -36 1 -50 19 -18 24 -51 31 -73 16 -6 -4 -19 -22 -29 -41 l-17 -34
-102 8 c-198 15 -196 15 -196 38 0 19 -59 70 -73 64 -22 -8 -114 20 -136 42
-25 25 -66 28 -79 6 -7 -13 -17 -14 -63 -6 -30 5 -63 12 -74 15 -13 4 -27 -1
-41 -16z m255 -15 c18 -16 42 -29 54 -30 79 -8 96 -13 120 -33 15 -13 27 -29
27 -36 0 -29 32 -34 280 -46 29 -2 43 7 57 37 23 48 51 55 80 21 19 -22 29
-26 52 -21 17 3 32 2 36 -4 3 -6 19 -11 34 -11 15 0 32 -5 37 -10 6 -6 26 -12
45 -14 19 -2 42 -7 52 -11 9 -4 23 -3 30 3 17 15 195 18 209 4 8 -8 -2 -17
-38 -33 -40 -17 -61 -20 -112 -15 l-63 5 6 -32 c4 -18 8 -32 9 -32 0 0 17 -8
37 -17 29 -13 49 -15 105 -8 82 10 130 -5 136 -41 4 -30 60 -49 90 -30 23 14
53 6 90 -24 l27 -23 -39 -26 c-49 -32 -51 -32 -80 -1 -27 29 -86 43 -103 26
-9 -10 -7 -17 11 -31 38 -31 25 -55 -14 -25 -10 8 -26 15 -35 15 -9 0 -49 13
-89 30 -71 29 -74 30 -118 15 -35 -12 -52 -13 -78 -5 -29 10 -76 13 -134 10
-42 -3 -170 23 -210 41 -117 56 -137 61 -227 67 -70 3 -93 2 -93 -8 0 -19 -96
-3 -154 26 -38 18 -66 24 -116 24 -80 0 -112 17 -92 49 16 27 15 31 -6 31 -10
0 -28 7 -41 16 -14 10 -33 14 -51 11 -43 -9 -103 3 -90 18 6 7 21 10 35 7 19
-3 25 0 25 13 0 9 7 23 15 31 8 9 15 25 15 37 0 39 30 48 116 36 68 -11 78
-10 86 5 13 23 31 20 67 -11z"/>
<path d="M6124 716 c-35 -36 -58 -94 -48 -119 12 -32 56 -19 92 25 25 32 32
50 32 84 0 39 -2 44 -22 43 -13 0 -37 -15 -54 -33z m62 -15 c-3 -62 -83 -143
-99 -98 -7 21 15 69 47 103 42 44 54 43 52 -5z"/>
<path d="M5291 661 c-8 -5 -28 -7 -46 -4 -26 4 -34 0 -49 -22 -29 -45 -16 -55
61 -48 41 4 71 11 76 19 4 8 17 14 27 14 28 0 26 36 -2 44 -32 8 -51 7 -67 -3z
m64 -11 c18 -7 18 -9 -10 -20 -16 -6 -32 -15 -35 -19 -6 -9 -107 -21 -114 -13
-3 2 2 15 11 29 13 19 21 23 44 18 16 -4 36 -2 46 4 21 12 31 12 58 1z"/>
<path d="M5827 634 c-23 -23 17 -82 48 -70 11 4 15 16 13 38 -2 27 -8 34 -28
36 -14 2 -29 0 -33 -4z m49 -19 c4 -8 3 -23 0 -32 -6 -15 -9 -15 -28 4 -21 22
-18 43 8 43 8 0 17 -7 20 -15z"/>
<path d="M3843 580 c-33 -13 -28 -36 12 -62 19 -13 35 -26 35 -30 0 -15 -21
-7 -48 17 -22 21 -37 25 -84 25 -32 0 -58 -4 -58 -10 0 -20 -18 -9 -24 15 -6
22 -12 25 -50 25 -50 0 -76 -22 -76 -63 0 -20 -5 -27 -20 -27 -13 0 -20 -7
-20 -19 0 -16 10 -21 56 -27 37 -4 59 -3 67 5 17 17 25 13 29 -11 3 -21 9 -23
75 -25 40 -1 75 3 78 8 4 5 21 9 38 9 18 0 40 7 50 14 11 9 33 12 61 9 26 -3
46 -1 50 6 4 6 23 11 42 11 39 0 41 8 17 62 -18 40 -18 40 -114 42 -14 1 -33
9 -43 19 -19 19 -39 21 -73 7z m60 -15 c9 -8 17 -20 19 -26 3 -8 10 -9 23 -2
11 5 39 8 62 5 36 -3 44 -8 54 -35 7 -18 14 -35 16 -38 2 -4 -13 -9 -34 -12
-21 -3 -51 -9 -67 -13 -18 -4 -31 -2 -36 5 -5 9 -16 7 -41 -8 -19 -12 -46 -21
-61 -21 -15 0 -29 -4 -32 -8 -2 -4 -33 -8 -68 -7 l-63 0 3 38 c3 44 -3 46 -39
11 -24 -23 -32 -25 -73 -19 -46 7 -64 25 -26 25 15 0 20 7 20 27 0 38 27 63
67 63 29 0 34 -4 40 -30 6 -34 11 -36 39 -15 31 24 95 19 126 -10 29 -27 62
-33 74 -13 4 7 -2 18 -16 27 -13 9 -33 24 -44 33 l-21 17 25 10 c34 13 36 13
53 -4z"/>
<path d="M4945 573 c-11 -3 -26 -10 -33 -16 -9 -7 -16 -7 -24 1 -18 18 -49 14
-75 -10 -20 -18 -23 -19 -23 -5 0 38 -145 12 -168 -30 -7 -12 -13 -13 -29 -5
-13 7 -39 8 -73 3 -42 -7 -59 -5 -91 11 -22 10 -69 22 -105 25 -61 6 -73 3
-134 -27 -19 -9 -24 -43 -11 -68 9 -16 22 -20 82 -20 40 -1 85 -6 100 -12 20
-9 41 -9 77 -1 27 5 58 8 69 5 11 -3 37 2 58 10 20 9 48 16 62 16 29 0 65 17
76 36 9 15 47 19 47 5 0 -5 12 -12 27 -16 19 -4 35 0 55 15 27 20 31 20 47 6
19 -17 47 -21 55 -7 3 4 33 11 66 15 34 4 68 10 76 13 19 7 18 49 -2 57 -18 7
-99 6 -129 -1z m113 -9 c24 -5 30 -29 9 -37 -8 -3 -40 -8 -73 -12 -32 -4 -65
-12 -73 -18 -10 -9 -18 -6 -33 12 l-19 24 -32 -23 c-32 -24 -65 -29 -76 -12
-13 21 -49 23 -63 4 -17 -25 -51 -42 -81 -42 -14 0 -41 -7 -60 -15 -20 -8 -43
-12 -51 -9 -8 3 -38 1 -66 -5 -34 -7 -57 -8 -69 -1 -11 5 -53 11 -96 13 -76 4
-94 13 -95 44 0 7 20 23 45 34 54 26 129 21 198 -11 34 -15 52 -18 92 -12 30
5 61 4 78 -3 23 -8 30 -7 38 7 21 39 149 66 149 33 0 -21 20 -18 47 7 20 19
26 20 47 8 15 -7 32 -9 43 -5 10 5 23 7 30 6 6 -1 14 3 18 8 6 10 49 12 93 5z"/>
<path d="M5025 421 c-16 -5 -47 -18 -68 -29 -21 -12 -46 -22 -56 -22 -24 0
-71 -37 -71 -56 0 -8 -9 -31 -20 -51 -24 -45 -26 -79 -4 -87 30 -11 69 -6 99
14 17 11 40 20 52 20 13 0 45 23 78 56 46 45 56 60 51 79 -4 15 -1 25 9 29 19
7 19 21 -1 40 -17 17 -23 18 -69 7z m65 -27 c0 -8 -5 -14 -11 -14 -7 0 -9 -11
-6 -26 4 -22 -5 -36 -50 -80 -32 -32 -63 -54 -76 -54 -12 0 -35 -9 -52 -20
-33 -22 -61 -25 -85 -10 -12 8 -11 15 8 55 12 25 22 52 22 60 0 19 48 55 74
55 11 0 37 10 56 22 59 36 120 42 120 12z"/>
<path d="M4185 370 c-3 -6 -17 -7 -31 -4 -13 3 -44 3 -69 0 -38 -6 -46 -12
-51 -33 -9 -34 25 -63 72 -63 38 0 75 -20 114 -60 19 -20 34 -26 61 -24 42 2
91 23 96 41 5 15 -65 93 -83 93 -7 0 -28 14 -46 30 -34 31 -52 37 -63 20z m75
-52 c0 -4 8 -8 17 -8 20 0 83 -58 83 -77 0 -8 -12 -18 -26 -23 -43 -17 -83
-12 -107 13 -36 37 -74 57 -111 57 -41 0 -80 28 -71 52 8 20 63 31 109 23 20
-4 36 -2 40 4 7 11 66 -25 66 -41z"/>
<path d="M4518 176 c-10 -7 -18 -21 -18 -30 0 -13 7 -17 33 -14 27 2 32 7 32
28 0 29 -22 36 -47 16z m38 -25 c-8 -12 -46 -15 -46 -5 0 4 8 13 18 20 18 14
39 3 28 -15z"/>
<path d="M4718 142 c-71 -48 -33 -84 48 -46 41 20 47 28 39 54 -9 27 -41 24
-87 -8z m75 4 c7 -17 -31 -44 -74 -53 -40 -8 -36 7 11 41 41 28 56 31 63 12z"/>
</g>
</svg>
