<?xml version="1.0" standalone="no"?>
<!DOCTYPE svg PUBLIC "-//W3C//DTD SVG 20010904//EN"
 "http://www.w3.org/TR/2001/REC-SVG-20010904/DTD/svg10.dtd">
<svg version="1.0" xmlns="http://www.w3.org/2000/svg"
 width="729.000000pt" height="421.000000pt" viewBox="0 0 729.000000 421.000000"
 preserveAspectRatio="xMidYMid meet">

<g transform="translate(0.000000,421.000000) scale(0.100000,-0.100000)"
fill="#000000" stroke="none">
<path d="M3525 3990 c-181 -19 -314 -59 -479 -143 -298 -152 -527 -417 -634
-732 -70 -205 -66 -130 -72 -1294 l-5 -1055 -125 -53 c-171 -73 -161 -71 -154
-31 19 115 76 238 159 342 59 73 64 89 39 124 -27 39 -74 30 -125 -26 -25 -26
-56 -65 -69 -87 l-24 -40 -14 50 c-34 129 -109 263 -195 353 -46 47 -82 55
-110 24 -29 -31 -21 -69 25 -123 94 -108 150 -231 167 -364 5 -39 8 -71 6 -73
-1 -1 -21 16 -44 38 -53 51 -106 84 -173 111 -60 23 -91 19 -114 -16 -26 -39
-4 -80 55 -101 101 -38 185 -117 231 -218 47 -103 49 -96 -33 -140 -140 -76
-248 -148 -259 -172 -10 -20 -8 -29 9 -52 l20 -27 2038 0 2038 0 20 27 c17 23
19 32 9 52 -11 24 -119 96 -259 172 -82 44 -80 37 -33 140 46 101 130 180 231
218 59 21 81 62 55 101 -23 35 -54 39 -114 16 -67 -27 -120 -60 -173 -111 -23
-22 -43 -39 -44 -38 -7 9 18 154 35 204 26 73 85 174 139 236 46 51 53 94 23
121 -32 29 -64 21 -114 -30 -82 -85 -155 -219 -190 -347 l-13 -49 -29 43 c-15
23 -46 62 -68 86 -48 52 -95 60 -122 22 -25 -35 -20 -51 39 -124 83 -104 140
-227 159 -342 7 -40 17 -42 -154 31 l-125 53 -5 1055 c-6 1161 -2 1084 -70
1290 -89 270 -292 529 -538 683 -237 149 -549 224 -817 196z m410 -163 c408
-112 713 -404 835 -802 49 -160 50 -193 50 -1237 l0 -976 -47 14 c-721 221
-1478 228 -2185 21 l-118 -34 0 976 c0 796 3 994 14 1071 66 437 371 802 786
941 150 50 214 59 405 55 142 -3 185 -8 260 -29z"/>
<path d="M2858 2970 l-28 -21 0 -420 c0 -406 1 -420 20 -439 11 -11 31 -20 45
-20 14 0 34 9 45 20 18 18 20 33 20 175 l0 155 98 0 c160 0 192 -34 200 -210
5 -116 16 -140 63 -140 16 0 37 9 49 22 17 19 20 35 20 125 0 116 -18 180 -68
242 l-29 36 34 40 c36 42 63 117 63 176 0 96 -73 205 -169 251 -39 19 -66 23
-191 26 -137 4 -146 3 -172 -18z m318 -136 c75 -36 101 -151 47 -215 -39 -45
-79 -59 -178 -59 l-85 0 0 145 0 145 91 0 c63 0 101 -5 125 -16z"/>
<path d="M3652 2980 c-12 -5 -27 -22 -32 -36 -7 -17 -10 -174 -8 -429 3 -380
4 -404 22 -424 27 -30 70 -27 95 5 20 26 21 37 21 434 0 374 -1 409 -17 428
-22 25 -51 33 -81 22z"/>
<path d="M4016 2967 l-26 -26 0 -416 c0 -402 1 -416 20 -435 25 -25 72 -26 93
-2 14 16 17 43 17 174 l0 155 106 6 c91 4 114 9 169 36 95 47 145 123 153 233
4 61 2 74 -27 132 -34 69 -81 114 -148 143 -27 12 -79 18 -185 21 l-146 4 -26
-25z m324 -135 c47 -25 83 -94 75 -142 -18 -96 -70 -130 -204 -130 l-91 0 0
145 0 145 93 0 c70 0 101 -4 127 -18z"/>
<path d="M2800 1903 c-55 -20 -67 -78 -24 -112 27 -21 32 -21 869 -21 837 0
842 0 869 21 32 25 35 68 5 95 -20 18 -50 19 -863 21 -462 1 -848 -1 -856 -4z"/>
<path d="M2966 1609 c-35 -28 -35 -70 0 -98 26 -21 34 -21 679 -21 645 0 653
0 679 21 17 13 26 30 26 49 0 19 -9 36 -26 49 -26 21 -34 21 -679 21 -645 0
-653 0 -679 -21z"/>
</g>
</svg>
