<?xml version="1.0" standalone="no"?>
<!DOCTYPE svg PUBLIC "-//W3C//DTD SVG 20010904//EN"
 "http://www.w3.org/TR/2001/REC-SVG-20010904/DTD/svg10.dtd">
<svg version="1.0" xmlns="http://www.w3.org/2000/svg"
 width="480.000000pt" height="360.000000pt" viewBox="0 0 480.000000 360.000000"
 preserveAspectRatio="xMidYMid meet">

<g transform="translate(0.000000,360.000000) scale(0.100000,-0.100000)"
fill="#000000" stroke="none">
<path d="M1640 3212 c0 -59 16 -255 34 -437 19 -181 33 -331 32 -332 -1 -1
-321 -4 -712 -5 -390 -2 -717 -7 -727 -12 -16 -8 -17 -20 -12 -120 3 -61 10
-151 15 -201 6 -49 15 -139 20 -200 6 -60 22 -220 36 -355 13 -135 29 -294 34
-353 6 -60 15 -127 20 -150 5 -23 10 -69 10 -101 0 -84 59 -667 70 -692 l9
-22 1871 2 c1558 1 1872 3 1879 14 5 8 11 53 15 100 7 97 21 249 37 392 6 52
14 140 20 195 16 175 39 407 49 495 12 100 51 496 80 795 11 116 29 298 40
405 11 107 24 249 30 315 5 66 14 156 20 200 5 44 12 101 15 127 l6 47 -1446
0 -1445 0 0 -107z m2843 71 c3 -5 -61 -689 -142 -1520 l-146 -1513 -232 0
-233 0 0 45 c0 41 -2 45 -25 45 -23 0 -25 4 -25 45 0 38 -3 45 -20 45 -17 0
-20 7 -20 40 0 27 -5 43 -15 46 -13 5 -15 56 -15 374 0 322 2 369 15 374 13 5
15 23 13 103 l-3 98 -560 0 -560 0 -3 -98 c-2 -80 0 -98 13 -103 13 -5 15 -52
15 -374 0 -318 -2 -369 -15 -374 -10 -3 -15 -19 -15 -45 0 -33 -3 -40 -22 -43
-19 -2 -24 -10 -26 -45 -3 -38 -6 -43 -28 -43 -22 0 -24 -4 -24 -45 l0 -45
-230 0 c-229 0 -230 0 -230 22 0 22 -275 2871 -286 2966 l-6 52 1410 0 c776 0
1413 -3 1415 -7z m-2773 -880 c1 -5 22 -221 48 -480 l48 -473 -521 -2 -520 -3
0 -85 0 -85 33 -3 32 -3 0 -510 0 -509 -172 2 -173 3 -102 1045 c-56 575 -102
1060 -102 1078 l-1 32 715 0 c393 0 715 -3 715 -7z m1898 -1040 l3 -73 -536 0
-535 0 0 75 0 75 533 -2 532 -3 3 -72z m-1798 35 c0 -13 3 -40 6 -60 l7 -38
-517 0 -516 0 0 60 0 60 510 0 510 0 0 -22z m-820 -638 l0 -510 -65 0 -65 0 0
510 0 510 65 0 65 0 0 -510z m882 30 c26 -261 47 -490 48 -507 l0 -33 -450 0
-450 0 0 510 0 510 402 -2 402 -3 48 -475z m828 100 l0 -370 -65 0 -65 0 0
370 0 370 65 0 65 0 0 -370z m360 0 l0 -370 -165 0 -165 0 0 370 0 370 165 0
165 0 0 -370z m360 0 l0 -370 -165 0 -165 0 0 370 0 370 165 0 165 0 0 -370z
m160 0 l0 -370 -65 0 -65 0 0 370 0 370 65 0 65 0 0 -370z m30 -430 l0 -30
-535 0 -535 0 0 30 0 30 535 0 535 0 0 -30z m50 -85 l0 -25 -585 0 -585 0 0
25 0 25 585 0 585 0 0 -25z m40 -95 l0 -30 -630 0 -630 0 0 30 0 30 630 0 630
0 0 -30z"/>
<path d="M3790 3135 l0 -65 -70 0 -70 0 0 -100 0 -99 68 -3 67 -3 3 -67 3 -68
99 0 100 0 0 70 0 70 65 0 65 0 0 100 0 100 -67 0 -68 0 3 65 4 65 -101 0
-101 0 0 -65z"/>
<path d="M2075 3068 c-11 -27 -1 -191 12 -195 8 -3 13 11 15 38 4 58 23 60 50
5 14 -31 28 -46 41 -46 17 0 17 3 -7 45 -25 46 -25 46 -6 65 42 42 16 90 -53
97 -35 4 -48 2 -52 -9z m88 -40 c8 -24 -5 -38 -34 -38 -24 0 -29 4 -29 25 0
21 5 25 29 25 16 0 31 -6 34 -12z"/>
<path d="M2229 3076 c-2 -2 -2 -45 1 -96 5 -96 12 -110 57 -110 33 0 51 25 58
82 9 75 3 123 -15 123 -12 0 -16 -17 -18 -82 -2 -55 -7 -83 -16 -86 -26 -10
-35 10 -38 88 -3 68 -13 97 -29 81z"/>
<path d="M2380 2974 c0 -76 3 -105 12 -102 7 3 11 28 10 74 -1 75 5 70 22 -16
15 -76 37 -74 52 5 l12 60 1 -62 c1 -49 4 -63 16 -63 12 0 15 18 15 106 0 103
0 105 -22 102 -18 -2 -25 -13 -33 -55 -13 -69 -21 -73 -30 -17 -9 64 -14 74
-36 74 -17 0 -19 -9 -19 -106z"/>
<path d="M2597 3073 c-6 -10 -57 -184 -57 -195 0 -20 28 -5 34 17 5 20 13 25
36 25 23 0 31 -5 36 -25 4 -15 13 -25 24 -25 16 0 16 7 -10 93 -15 52 -30 99
-34 105 -8 14 -23 16 -29 5z m27 -85 c9 -35 8 -38 -15 -38 -15 0 -19 4 -15 16
3 9 6 22 6 30 0 22 17 16 24 -8z"/>
<path d="M2707 3073 c-4 -3 -7 -51 -7 -105 0 -80 3 -98 15 -98 11 0 15 12 15
45 0 43 1 45 30 45 29 0 30 -2 30 -45 0 -33 4 -45 15 -45 12 0 15 18 15 106 0
80 -3 105 -12 102 -7 -3 -14 -21 -16 -41 -3 -34 -6 -37 -33 -37 -27 0 -29 2
-29 40 0 38 -8 49 -23 33z"/>
<path d="M2927 3062 c-10 -10 -17 -28 -17 -40 0 -25 33 -62 54 -62 7 0 19 -7
26 -16 11 -12 11 -18 -2 -30 -16 -17 -48 -9 -48 12 0 8 -7 14 -15 14 -21 0
-19 -33 3 -53 28 -26 69 -21 88 9 24 36 9 73 -39 99 -42 23 -49 45 -12 45 14
0 25 -4 25 -10 0 -5 7 -10 15 -10 21 0 19 23 -3 43 -24 22 -55 21 -75 -1z"/>
<path d="M3097 3073 c-5 -9 -57 -189 -57 -197 0 -3 7 -6 15 -6 8 0 17 11 21
25 5 20 13 25 35 25 22 0 32 -6 39 -25 5 -14 17 -25 26 -25 9 0 14 6 11 13 -3
7 -17 55 -33 105 -24 82 -43 109 -57 85z m32 -110 c1 -7 -8 -13 -19 -13 -24 0
-23 -2 -8 41 12 34 12 34 19 9 4 -14 7 -31 8 -37z"/>
<path d="M3205 3068 c-3 -8 -5 -55 -3 -104 2 -71 6 -89 18 -89 10 0 15 11 16
31 2 66 22 70 47 9 13 -30 25 -45 37 -45 18 0 18 2 3 38 -8 20 -21 49 -29 63
-12 24 -11 30 11 60 29 38 31 49 11 49 -8 0 -29 -20 -47 -45 -18 -25 -33 -45
-34 -45 -1 0 -1 19 -1 41 1 42 -18 65 -29 37z"/>
<path d="M3355 3068 c-3 -8 -5 -55 -3 -104 2 -71 6 -89 18 -89 12 0 15 18 15
99 0 71 -4 101 -12 103 -7 3 -15 -2 -18 -9z"/>
<path d="M3407 3073 c-16 -15 -6 -33 18 -33 25 0 25 -1 25 -85 0 -69 3 -85 15
-85 12 0 15 16 15 85 0 78 2 85 20 85 13 0 20 7 20 20 0 18 -7 20 -53 20 -30
0 -57 -3 -60 -7z"/>
<path d="M1995 2577 c-3 -7 -4 -98 -3 -202 l3 -190 203 -3 202 -2 -2 202 -3
203 -198 3 c-155 2 -199 0 -202 -11z m375 -197 l0 -170 -170 0 -170 0 0 170 0
170 170 0 170 0 0 -170z"/>
<path d="M2044 2405 c0 -66 1 -92 3 -57 2 34 2 88 0 120 -2 31 -3 3 -3 -63z"/>
<path d="M2587 2584 c-4 -4 -7 -97 -7 -206 l0 -198 205 0 205 0 -2 203 -3 202
-196 3 c-107 1 -198 -1 -202 -4z m373 -204 l0 -170 -172 0 -173 0 3 170 3 170
169 0 170 0 0 -170z"/>
<path d="M2634 2400 c0 -69 1 -97 3 -62 2 34 2 90 0 125 -2 34 -3 6 -3 -63z"/>
<path d="M3177 2584 c-4 -4 -7 -97 -7 -206 l0 -198 205 0 205 0 -2 203 -3 202
-196 3 c-107 1 -198 -1 -202 -4z m373 -204 l0 -170 -175 0 -175 0 0 170 0 170
175 0 175 0 0 -170z"/>
<path d="M3224 2380 c0 -80 2 -112 3 -72 2 39 2 105 0 145 -1 39 -3 7 -3 -73z"/>
<path d="M3760 2385 l0 -205 200 0 200 0 0 205 0 205 -200 0 -200 0 0 -205z
m370 -5 l0 -170 -170 0 -170 0 0 170 0 170 170 0 170 0 0 -170z"/>
<path d="M1994 1987 c-2 -7 -3 -98 -2 -202 l3 -190 203 -3 202 -2 0 205 0 205
-200 0 c-154 0 -202 -3 -206 -13z m376 -187 l0 -170 -170 0 -170 0 0 170 0
170 170 0 170 0 0 -170z"/>
<path d="M2118 1943 c34 -2 90 -2 125 0 34 2 6 3 -63 3 -69 0 -97 -1 -62 -3z"/>
<path d="M2044 1820 c0 -69 1 -97 3 -62 2 34 2 90 0 125 -2 34 -3 6 -3 -63z"/>
<path d="M2128 1643 c39 -2 105 -2 145 0 39 1 7 3 -73 3 -80 0 -112 -2 -72 -3z"/>
<path d="M2584 1987 c-2 -7 -3 -98 -2 -202 l3 -190 200 0 200 0 3 203 2 202
-200 0 c-154 0 -202 -3 -206 -13z m376 -189 l0 -173 -170 3 -169 3 -3 169 -3
170 173 0 172 0 0 -172z"/>
<path d="M2634 1937 c-2 -7 -3 -65 -1 -128 l3 -114 2 122 2 122 123 4 122 3
-123 2 c-93 1 -124 -1 -128 -11z"/>
<path d="M2713 1643 c43 -2 110 -2 150 0 40 1 5 3 -78 3 -82 0 -115 -2 -72 -3z"/>
<path d="M3172 1798 l3 -203 200 0 200 0 3 203 2 202 -205 0 -205 0 2 -202z
m378 0 l0 -173 -175 3 -175 3 0 169 0 170 175 0 175 0 0 -172z"/>
<path d="M3224 1937 c-2 -7 -3 -76 -2 -152 l3 -140 148 0 147 -1 -145 3 -145
4 0 144 0 144 128 4 127 3 -128 2 c-97 1 -129 -1 -133 -11z"/>
<path d="M3760 1795 l0 -205 200 0 200 0 0 205 0 205 -200 0 -200 0 0 -205z
m370 5 l0 -170 -170 0 -170 0 0 170 0 170 170 0 170 0 0 -170z"/>
<path d="M3878 1943 c34 -2 90 -2 125 0 34 2 6 3 -63 3 -69 0 -97 -1 -62 -3z"/>
<path d="M3888 1643 c39 -2 105 -2 145 0 39 1 7 3 -73 3 -80 0 -112 -2 -72 -3z"/>
<path d="M1994 1407 c-2 -7 -3 -98 -2 -202 l3 -190 203 -3 202 -2 0 205 0 205
-200 0 c-154 0 -202 -3 -206 -13z m376 -192 l0 -175 -170 0 -170 0 0 175 0
175 170 0 170 0 0 -175z"/>
<path d="M2044 1235 c0 -66 1 -92 3 -57 2 34 2 88 0 120 -2 31 -3 3 -3 -63z"/>
<path d="M3760 1215 l0 -205 200 0 200 0 0 205 0 205 -200 0 -200 0 0 -205z
m370 0 l0 -175 -170 0 -170 0 0 175 0 175 170 0 170 0 0 -175z"/>
<path d="M460 2140 l0 -160 160 0 160 0 0 160 0 160 -160 0 -160 0 0 -160z
m292 -6 l3 -134 -137 0 -138 0 0 138 0 137 134 -3 135 -3 3 -135z"/>
<path d="M494 2150 c0 -58 1 -81 3 -52 2 28 2 76 0 105 -2 28 -3 5 -3 -53z"/>
<path d="M562 2013 c32 -2 84 -2 116 0 31 2 5 3 -58 3 -63 0 -89 -1 -58 -3z"/>
<path d="M892 2139 l3 -160 158 -2 157 -2 0 163 0 162 -160 0 -160 0 2 -161z
m298 1 l0 -140 -135 0 -135 0 0 135 0 134 133 4 c72 1 133 4 135 5 1 1 2 -61
2 -138z"/>
<path d="M1174 2135 c0 -66 1 -92 3 -57 2 34 2 88 0 120 -2 31 -3 3 -3 -63z"/>
<path d="M993 2013 c31 -2 83 -2 115 0 31 2 5 3 -58 3 -63 0 -89 -1 -57 -3z"/>
<path d="M1324 2287 c-2 -7 -3 -79 -2 -161 l3 -147 160 0 160 0 3 160 2 161
-160 0 c-122 0 -162 -3 -166 -13z m296 -152 l0 -135 -135 0 -135 0 0 135 0
135 135 0 135 0 0 -135z"/>
<path d="M1364 2135 c0 -66 1 -92 3 -57 2 34 2 88 0 120 -2 31 -3 3 -3 -63z"/>
<path d="M1433 2013 c31 -2 83 -2 115 0 31 2 5 3 -58 3 -63 0 -89 -1 -57 -3z"/>
<path d="M460 1725 l0 -166 158 3 157 3 3 163 2 162 -160 0 -160 0 0 -165z
m295 0 l0 -135 -137 0 -138 0 0 135 0 135 138 0 137 0 0 -135z"/>
<path d="M494 1740 c0 -58 1 -81 3 -52 2 28 2 76 0 105 -2 28 -3 5 -3 -53z"/>
<path d="M562 1603 c32 -2 84 -2 116 0 31 2 5 3 -58 3 -63 0 -89 -1 -58 -3z"/>
<path d="M892 1728 l3 -163 158 -3 157 -3 0 166 0 165 -160 0 -160 0 2 -162z
m298 -3 l0 -135 -135 0 -135 0 0 135 0 135 135 0 135 0 0 -135z"/>
<path d="M1174 1725 c0 -66 1 -92 3 -57 2 34 2 88 0 120 -2 31 -3 3 -3 -63z"/>
<path d="M993 1603 c31 -2 83 -2 115 0 31 2 5 3 -58 3 -63 0 -89 -1 -57 -3z"/>
<path d="M1324 1877 c-2 -7 -3 -80 -2 -162 l3 -150 160 0 160 0 3 163 2 162
-160 0 c-122 0 -162 -3 -166 -13z m296 -152 l0 -135 -135 0 -135 0 0 135 0
135 135 0 135 0 0 -135z"/>
<path d="M1364 1725 c0 -66 1 -92 3 -57 2 34 2 88 0 120 -2 31 -3 3 -3 -63z"/>
<path d="M1433 1603 c31 -2 83 -2 115 0 31 2 5 3 -58 3 -63 0 -89 -1 -57 -3z"/>
<path d="M2926 861 c-47 -51 14 -133 73 -100 54 30 32 119 -29 119 -15 0 -35
-9 -44 -19z"/>
<path d="M3127 862 c-23 -25 -21 -68 3 -92 39 -39 100 -12 100 44 0 58 -66 89
-103 48z"/>
</g>
</svg>
