<?xml version="1.0" standalone="no"?>
<!DOCTYPE svg PUBLIC "-//W3C//DTD SVG 20010904//EN"
 "http://www.w3.org/TR/2001/REC-SVG-20010904/DTD/svg10.dtd">
<svg version="1.0" xmlns="http://www.w3.org/2000/svg"
 width="472.000000pt" height="649.000000pt" viewBox="0 0 472.000000 649.000000"
 preserveAspectRatio="xMidYMid meet">
<metadata>
Created by potrace 1.15, written by Peter Selinger 2001-2017
</metadata>
<g transform="translate(0.000000,649.000000) scale(0.100000,-0.100000)"
fill="#000000" stroke="none">
<path d="M2040 6479 c-175 -25 -433 -71 -476 -84 -27 -8 -65 -26 -84 -40 -23
-17 -47 -25 -75 -25 -86 0 -267 -63 -355 -123 -122 -84 -147 -159 -185 -552
-33 -351 -13 -465 108 -592 87 -93 217 -160 377 -198 41 -9 95 -24 120 -32 81
-26 177 -11 295 48 102 50 117 54 194 43 45 -7 114 10 198 47 44 19 82 63 103
119 21 55 26 55 48 -2 41 -104 80 -256 117 -458 34 -186 37 -221 37 -375 0
-93 -10 -323 -21 -510 -11 -187 -23 -409 -27 -493 -4 -84 -11 -155 -16 -158
-4 -3 -57 44 -116 105 -94 97 -117 115 -192 150 -116 55 -222 75 -395 76 -160
0 -205 -11 -317 -76 -91 -54 -168 -116 -336 -276 l-142 -135 -103 46 c-117 52
-298 116 -507 179 -194 59 -194 59 -216 43 -23 -17 -37 -11 226 -99 107 -35
257 -89 333 -118 l137 -54 47 -70 c55 -82 109 -209 124 -292 6 -32 13 -65 16
-73 2 -8 20 37 39 100 76 248 176 425 323 570 70 70 104 94 181 133 156 77
271 83 458 21 86 -29 127 -53 250 -152 114 -92 180 -186 218 -310 41 -133 103
-245 214 -382 194 -239 253 -287 405 -325 149 -37 310 -50 445 -36 255 27 507
122 629 238 92 88 79 120 -45 102 -241 -36 -502 81 -709 318 -280 320 -490
832 -580 1413 -23 150 -31 461 -15 585 7 55 16 129 19 165 9 103 37 95 211
-63 136 -124 144 -119 67 48 -49 107 -90 176 -206 350 -47 71 -120 186 -161
254 -113 190 -124 189 -256 -25 -41 -67 -84 -130 -94 -139 -20 -18 -51 -17
-162 1 -25 4 -38 2 -38 -5 0 -6 20 -39 45 -72 50 -67 50 -76 9 -139 -21 -32
-129 -109 -138 -99 -2 2 -11 29 -21 59 -10 30 -39 109 -65 175 -26 66 -53 139
-59 162 -8 29 -25 54 -58 83 -88 77 -100 39 -53 -178 32 -153 37 -226 19 -298
-23 -89 -62 -65 -109 65 -40 110 -55 175 -81 352 -32 226 -63 325 -110 350
-30 16 -101 6 -143 -20 -46 -29 -47 -51 -2 -202 59 -200 69 -268 61 -404 -4
-66 -9 -124 -12 -128 -24 -39 -85 207 -123 489 -11 82 -29 185 -40 228 -23 90
-79 213 -110 241 -20 18 -21 18 -50 -3 -16 -13 -41 -27 -54 -32 -22 -8 -25 -6
-30 26 -11 56 3 101 41 134 61 54 205 106 342 125 29 4 69 18 88 31 44 30 68
36 278 79 217 44 356 57 455 44 92 -13 340 -94 435 -142 109 -55 143 -97 231
-287 42 -91 122 -264 179 -385 56 -121 110 -236 118 -256 8 -20 39 -70 69
-110 30 -41 214 -312 409 -604 528 -789 671 -1051 777 -1422 47 -162 56 -207
77 -368 20 -146 46 -252 91 -369 55 -144 69 -303 28 -337 -8 -6 -21 -26 -30
-44 -28 -60 -148 -198 -204 -236 -275 -184 -1044 -243 -1612 -123 -64 13 -136
31 -160 39 l-43 15 35 -33 c20 -17 98 -88 174 -156 196 -175 241 -243 264
-393 l9 -58 -36 -7 c-20 -5 -225 -8 -456 -8 -337 1 -449 4 -570 18 -168 20
-352 51 -437 73 -154 39 -313 121 -358 184 -19 27 -19 32 -7 63 28 65 144 136
374 228 251 100 442 225 540 354 66 87 142 252 131 285 -2 6 -30 -24 -63 -66
-272 -348 -571 -493 -910 -440 -55 8 -129 25 -165 37 -88 29 -249 107 -335
163 -156 101 -307 151 -491 163 -153 9 -207 -18 -181 -90 15 -44 111 -142 224
-229 57 -44 103 -83 103 -88 0 -21 -118 -111 -216 -164 -144 -79 -168 -98
-199 -159 l-25 -51 0 -702 c0 -597 2 -703 14 -713 45 -37 154 103 301 388
l100 192 80 -6 c92 -7 330 -47 629 -105 232 -44 361 -51 596 -30 420 38 769
132 1200 322 211 94 400 198 625 346 203 133 275 176 458 273 179 94 292 174
416 294 211 204 295 372 295 590 0 91 -4 109 -38 200 -47 126 -81 263 -96 385
-24 192 -80 402 -162 610 -109 274 -245 503 -734 1237 -434 651 -420 626 -681
1178 -173 365 -195 392 -376 473 -245 109 -421 146 -587 121z"/>
</g>
</svg>
